<?xml version="1.0" encoding="UTF-8"?>
<svg id="Capa_1" data-name="Capa 1" xmlns="http://www.w3.org/2000/svg" viewBox="0 0 755.76 800">
  <defs>
    <style>
      .cls-1 {
        fill: #fff;
      }
    </style>
  </defs>
  <path class="cls-1" d="m29.46,318.6v183.03c0,56.16,45.53,101.68,101.68,101.68h106.32l292.79,192.29c29.65,16.38,70.03-15.37,89.79-55.52L101.34,221.38c-41.61,12.74-71.87,51.43-71.87,97.22Z"/>
  <path class="cls-1" d="m631.94,109.23c0-56.16-50.84-133.88-101.68-101.68l-268.41,192.28,370.08,370.09V109.23h0Z"/>
  <path class="cls-1" d="m122.76,217.34l504.53,504.53,49.32,49.3c9.04,9.06,20.91,13.59,32.78,13.59s23.74-4.53,32.79-13.59c18.11-18.1,18.11-47.46,0-65.58l-110.23-110.23L247.03,210.46,79.16,42.62c-9.04-9.06-20.91-13.59-32.78-13.59s-23.73,4.53-32.79,13.59c-18.12,18.1-18.12,47.46,0,65.57l109.17,109.16Z"/>
</svg>