<?xml version="1.0" encoding="UTF-8"?>
<svg id="Capa_1" data-name="Capa 1" xmlns="http://www.w3.org/2000/svg" viewBox="0 0 666.67 666.67">
  <defs>
    <style>
      .cls-1 {
        fill: #fff;
        fill-rule: evenodd;
      }
    </style>
  </defs>
  <path class="cls-1" d="m333.33,666.67c184.09,0,333.33-149.24,333.33-333.33S517.43,0,333.33,0,0,149.24,0,333.33s149.24,333.33,333.33,333.33ZM202.54,220.58c-2.54,6.13-2.54,13.89-2.54,29.42v166.67c0,15.53,0,23.3,2.54,29.42,3.38,8.17,9.87,14.66,18.04,18.04,6.13,2.54,13.89,2.54,29.42,2.54s23.3,0,29.42-2.54c8.17-3.38,14.66-9.87,18.04-18.04,2.54-6.13,2.54-13.89,2.54-29.42v-166.67c0-15.53,0-23.3-2.54-29.42-3.38-8.17-9.87-14.66-18.04-18.04-6.13-2.54-13.89-2.54-29.42-2.54s-23.3,0-29.42,2.54c-8.17,3.38-14.66,9.87-18.04,18.04Zm166.67,0c-2.54,6.13-2.54,13.89-2.54,29.42v166.67c0,15.53,0,23.3,2.54,29.42,3.38,8.17,9.87,14.66,18.04,18.04,6.13,2.54,13.89,2.54,29.42,2.54s23.3,0,29.42-2.54c8.17-3.38,14.66-9.87,18.04-18.04,2.54-6.13,2.54-13.89,2.54-29.42v-166.67c0-15.53,0-23.3-2.54-29.42-3.38-8.17-9.87-14.66-18.04-18.04-6.13-2.54-13.89-2.54-29.42-2.54s-23.3,0-29.42,2.54c-8.17,3.38-14.66,9.87-18.04,18.04Z"/>
</svg>