<?xml version="1.0" encoding="UTF-8"?>
<svg id="Uploaded_to_svgrepo.com" data-name="Uploaded to svgrepo.com" xmlns="http://www.w3.org/2000/svg" viewBox="0 0 750 560.94">
  <defs>
    <style>
      .cls-1 {
        fill: #fff;
      }
    </style>
  </defs>
  <path class="cls-1" d="m375,30.47v500c0,27.5-19.3,38.43-42.88,24.28l-164.25-98.55c-23.57-14.15-65.37-25.73-92.87-25.73h-25c-27.5,0-50-22.5-50-50v-200c0-27.5,22.5-50,50-50h25c27.5,0,69.3-11.58,92.88-25.73L332.12,6.19c23.57-14.15,42.88-3.22,42.88,24.28Zm265.15-15.15c-19.53-19.53-51.17-19.53-70.7,0s-19.53,51.17,0,70.7c51.92,51.95,80.55,121,80.55,194.45s-28.63,142.5-80.55,194.45c-19.53,19.53-19.53,51.18,0,70.7,9.78,9.78,22.55,14.65,35.35,14.65s25.58-4.87,35.35-14.65c70.83-70.82,109.85-164.97,109.85-265.15s-39.03-194.32-109.85-265.15Zm-106.08,106.05c-19.53-19.53-51.17-19.53-70.7,0s-19.53,51.17,0,70.7c23.6,23.63,36.63,55,36.63,88.4s-13,64.77-36.6,88.37c-19.53,19.53-19.53,51.18,0,70.7,9.78,9.78,22.55,14.65,35.35,14.65s25.58-4.87,35.35-14.65c42.5-42.47,65.9-98.97,65.9-159.07s-23.43-116.6-65.92-159.1Z"/>
</svg>