<?xml version="1.0" encoding="UTF-8"?>
<svg id="Capa_2" data-name="Capa 2" xmlns="http://www.w3.org/2000/svg" viewBox="0 0 68.85 43.84">
  <defs>
    <style>
      .cls-1 {
        fill-rule: evenodd;
        stroke-width: 0px;
      }
    </style>
  </defs>
  <g id="Capa_1-2" data-name="Capa 1">
    <g id="adventist-es-centered--black_1" data-name="adventist-es-centered--black 1">
      <g id="Group">
        <path id="Vector" class="cls-1" d="m7.29,39.33v-.15c0-1.22-.32-1.91-1.36-1.91-.83,0-1.24.75-1.24,1.92s.41,1.86,1.25,1.86c.99,0,1.35-.57,1.35-1.72Zm-3.4-.16c0-1.69.77-2.57,1.94-2.57.73,0,1.16.32,1.45.73h.05c-.02-.16-.05-.54-.05-.73v-1.66l.77-.31v7h-.62l-.11-.66h-.04c-.28.42-.73.76-1.46.76-1.16,0-1.93-.86-1.93-2.55Zm5.85-.5h2.39c0-.84-.36-1.41-1.14-1.41-.74,0-1.17.53-1.25,1.41Zm3.2.16v.49h-3.21c.03,1.11.56,1.71,1.5,1.71.46,0,.92-.09,1.29-.24l.22.61c-.48.22-.9.32-1.54.32-1.34,0-2.26-.88-2.26-2.52s.83-2.6,2.08-2.6,1.94.88,1.94,2.23Zm.84,2.8v-6.69l.77-.31v7h-.77Zm5.69.09c-.7,0-1.32-.11-1.72-.31l.25-.68c.27.13.84.28,1.51.28.93,0,1.41-.41,1.41-1.06s-.34-.92-1.47-1.35c-1.07-.41-1.61-.93-1.61-1.95s.81-1.68,2-1.68c.68,0,1.25.15,1.73.37l-.25.71c-.44-.19-.95-.35-1.49-.35-.78,0-1.18.39-1.18.96,0,.66.35.93,1.37,1.33,1.1.43,1.71.87,1.71,1.9,0,1.17-.87,1.85-2.23,1.85Zm6.03-7.05c-.22.34-.84,1.05-1.25,1.38h-.51v-.11c.25-.34.63-.95.83-1.36h.93v.09Zm-2.43,4.01h2.39c0-.84-.36-1.41-1.14-1.41-.74,0-1.17.53-1.25,1.41Zm3.2.16v.49h-3.21c.03,1.11.56,1.71,1.5,1.71.46,0,.92-.09,1.29-.24l.22.61c-.48.22-.9.32-1.54.32-1.34,0-2.26-.87-2.26-2.52s.83-2.6,2.08-2.6,1.94.88,1.94,2.23Zm1.61.17v.16c0,1.22.32,1.9,1.34,1.9.85,0,1.25-.8,1.25-1.91s-.4-1.86-1.27-1.86c-.95,0-1.3.56-1.32,1.71Zm3.39.16c0,1.69-.77,2.57-1.94,2.57-.73,0-1.18-.33-1.45-.72h-.05c.02.21.05.58.05.81v2.03h-.77v-7.15h.63l.11.67h.04c.28-.42.7-.76,1.46-.76,1.16,0,1.93.85,1.93,2.55m2.82,1.79l.21.58c-.17.11-.5.2-.86.2-.74,0-1.37-.33-1.37-1.53v-4.33l.77-.3v1.13h1.36v.63h-1.36v2.85c0,.6.31.88.74.88.18,0,.41-.06.52-.12Zm1.08.69h.77v-4.94h-.77v4.94Zm.84-6.27c0,.35-.21.52-.45.52-.25,0-.46-.17-.46-.52s.2-.52.46-.52c.24,0,.45.16.45.52Zm7.98,3.06v3.21h-.76v-3.18c0-.77-.31-1.17-.95-1.17-.91,0-1.27.57-1.27,1.62v2.73h-.76v-3.18c0-.77-.31-1.17-.96-1.17-.95,0-1.25.64-1.25,1.79v2.56h-.77v-4.94h.62l.11.67h.04c.29-.52.82-.76,1.38-.76.72,0,1.21.27,1.44.83h.04c.32-.56.89-.83,1.51-.83,1.06,0,1.59.54,1.59,1.81Zm3.01,2.63c.95,0,1.38-.73,1.38-1.9s-.43-1.87-1.38-1.87-1.37.7-1.37,1.87.42,1.9,1.38,1.9Zm-.02.67c-1.24,0-2.15-.93-2.15-2.57s.83-2.55,2.18-2.55c1.27,0,2.16.92,2.16,2.55s-.85,2.57-2.19,2.57Zm7.25-5.96h-1.02v5.16h.85c1.69,0,2.54-.88,2.54-2.62s-.86-2.54-2.36-2.54Zm-.07,5.87h-1.74v-6.58h1.93c1.88,0,3.08,1.11,3.08,3.22,0,2.22-1.21,3.35-3.27,3.35m4.19,0h.77v-4.94h-.77v4.94Zm1.62-6.96c-.22.34-.84,1.05-1.25,1.38h-.51v-.11c.25-.34.63-.95.83-1.36h.93v.09Zm2.29,4.58c-1.17.05-1.55.4-1.55,1.02,0,.55.35.8.86.8.79,0,1.38-.45,1.38-1.41v-.44l-.69.03Zm1.45-.98v3.36h-.56l-.15-.7h-.04c-.41.54-.79.79-1.58.79-.85,0-1.48-.46-1.48-1.46s.72-1.53,2.25-1.57l.8-.03v-.29c0-.82-.36-1.1-.97-1.1-.49,0-.94.18-1.32.38l-.24-.61c.41-.23.99-.42,1.6-.42,1.14,0,1.68.51,1.68,1.66Z"/>
        <g id="Group_2" data-name="Group 2">
          <path id="Vector_2" data-name="Vector 2" class="cls-1" d="m0,31.76l.26-.74h.47v-5.11h-.74v-.73h2.26l-.26.73h-.47v5.11h.74v.74H0Zm5.68-3.36c0-.72-.32-1.08-.96-1.08s-.96.37-.96,1.09c0,.68.32,1.02.97,1.02s.95-.35.95-1.03Zm.53,3.95c0-.27-.07-.44-.21-.53-.15-.09-.43-.14-.85-.14h-.81c-.66,0-.98.29-.98.89,0,.52.39.78,1.16.78,1.13,0,1.69-.33,1.69-1Zm-3.58.25c0-.64.34-1.04,1.02-1.22-.27-.14-.41-.38-.41-.69,0-.34.19-.63.57-.87-.53-.23-.81-.82-.81-1.39,0-1.15.68-1.7,1.75-1.7.25,0,.46.03.64.09h1.62l-.23.63h-.61c.18.26.28.58.28.96,0,1.02-.71,1.58-1.73,1.58-.16,0-.28,0-.37-.03-.29.17-.43.37-.43.6,0,.25.24.38.69.38h.8c.95,0,1.53.45,1.53,1.34,0,1.13-.81,1.69-2.42,1.69-1.09,0-1.9-.4-1.9-1.37Zm5.12-.84v-6.69l.77-.31v7h-.77Zm2.64-2.96h2.39c0-.84-.36-1.41-1.14-1.41-.74,0-1.17.53-1.25,1.41Zm3.2.16v.49h-3.21c.03,1.11.56,1.71,1.5,1.71.46,0,.92-.09,1.29-.24l.22.61c-.48.22-.9.32-1.54.32-1.34,0-2.26-.88-2.26-2.52s.83-2.6,2.08-2.6,1.94.88,1.94,2.23Zm2.2,2.89c-.66,0-1.11-.11-1.47-.31l.23-.63c.31.14.81.29,1.26.29.78,0,1.11-.29,1.11-.73,0-.37-.24-.59-1.16-.96-.91-.37-1.45-.66-1.45-1.47s.71-1.31,1.76-1.31c.57,0,1.06.13,1.5.33l-.24.65c-.4-.18-.86-.32-1.31-.32-.63,0-.97.23-.97.6,0,.41.31.58,1.21.94.89.35,1.41.67,1.41,1.46,0,.96-.73,1.45-1.87,1.45m2.81-.09h.77v-4.94h-.77v4.94Zm.84-6.27c0,.35-.21.52-.45.52-.25,0-.46-.17-.46-.52s.2-.52.46-.52c.24,0,.45.16.45.52Zm3.25,3.89c-1.17.05-1.55.4-1.55,1.02,0,.55.35.8.86.8.79,0,1.38-.45,1.38-1.41v-.44l-.69.03Zm1.45-.98v3.36h-.56l-.15-.7h-.03c-.41.54-.79.79-1.58.79-.85,0-1.48-.46-1.48-1.46s.72-1.53,2.25-1.57l.8-.03v-.29c0-.82-.36-1.1-.97-1.1-.49,0-.94.18-1.32.38l-.24-.61c.41-.23.99-.42,1.6-.42,1.14,0,1.68.51,1.68,1.66Zm5.72-1.4c-.05-.15-.24-.76-.3-.99-.09.38-.2.77-.27.99l-.71,1.99h1.98l-.7-1.99Zm.94,2.73h-2.48l-.74,2.04h-.8l2.44-6.6h.71l2.43,6.6h-.81l-.75-2.04Zm5.11-.27v-.15c0-1.22-.32-1.91-1.36-1.91-.83,0-1.24.75-1.24,1.92s.41,1.86,1.25,1.86c.99,0,1.35-.57,1.35-1.72Zm-3.4-.16c0-1.69.77-2.57,1.94-2.57.73,0,1.16.32,1.45.73h.05c-.02-.16-.05-.54-.05-.73v-1.66l.77-.31v7h-.62l-.11-.66h-.04c-.28.42-.73.76-1.46.76-1.16,0-1.93-.86-1.93-2.55m4.8-2.48h.82l1,2.91c.14.41.32,1,.38,1.31h.04c.06-.3.26-.91.39-1.31l1-2.91h.82l-1.79,4.94h-.88l-1.78-4.94h0Zm5.54,1.98h2.39c0-.84-.36-1.41-1.14-1.41-.74,0-1.17.53-1.25,1.41Zm3.2.16v.49h-3.21c.03,1.11.56,1.71,1.5,1.71.46,0,.92-.09,1.29-.24l.22.61c-.48.22-.9.32-1.54.32-1.34,0-2.26-.88-2.26-2.52s.83-2.6,2.08-2.6,1.94.88,1.94,2.23Zm4.79-.41v3.21h-.76v-3.16c0-.79-.33-1.19-1.05-1.19-1.04,0-1.38.64-1.38,1.79v2.56h-.77v-4.94h.62l.11.67h.04c.31-.52.88-.76,1.48-.76,1.12,0,1.7.54,1.7,1.81Zm3.14,2.52l.21.58c-.17.11-.5.2-.86.2-.74,0-1.38-.33-1.38-1.53v-4.33l.77-.3v1.13h1.36v.63h-1.36v2.85c0,.6.31.88.74.88.18,0,.41-.06.52-.12Zm1.08.69h.77v-4.94h-.77v4.94Zm.84-6.27c0,.35-.21.52-.45.52-.25,0-.46-.17-.46-.52s.2-.52.46-.52c.24,0,.45.16.45.52Zm2.43,6.36c-.66,0-1.11-.11-1.47-.31l.23-.63c.31.14.81.29,1.26.29.78,0,1.11-.29,1.11-.73,0-.37-.24-.59-1.16-.96-.91-.37-1.45-.66-1.45-1.47s.71-1.31,1.76-1.31c.57,0,1.06.13,1.5.33l-.24.65c-.4-.18-.86-.32-1.31-.32-.63,0-.97.23-.97.6,0,.41.31.58,1.21.94.89.35,1.41.67,1.41,1.46,0,.96-.73,1.45-1.87,1.45m4.84-.78l.21.58c-.17.11-.5.2-.86.2-.74,0-1.38-.33-1.38-1.53v-4.33l.77-.3v1.13h1.36v.63h-1.36v2.85c0,.6.31.88.74.88.17,0,.41-.06.52-.12Zm2.91-1.69c-1.17.05-1.55.4-1.55,1.02,0,.55.35.8.86.8.79,0,1.38-.45,1.38-1.41v-.44l-.69.03h0Zm1.45-.98v3.36h-.56l-.15-.7h-.04c-.41.54-.79.79-1.58.79-.85,0-1.48-.46-1.48-1.46s.72-1.53,2.25-1.57l.8-.03v-.29c0-.82-.36-1.1-.97-1.1-.49,0-.94.18-1.32.38l-.24-.61c.41-.23.99-.42,1.6-.42,1.14,0,1.68.51,1.68,1.66Zm.74-2.96c.08,0,.13-.05.13-.12s-.04-.11-.13-.11h-.08v.23h.08Zm-.2-.34h.2c.18,0,.25.07.25.22,0,.1-.06.16-.12.18l.18.32h-.14l-.16-.29h-.1v.29h-.12v-.73Zm.71.37c0-.29-.2-.53-.49-.53s-.49.22-.49.53c0,.29.2.52.49.52.27,0,.49-.21.49-.52Zm-1.07,0c0-.36.24-.62.58-.62.32,0,.58.26.58.62s-.25.61-.58.61-.58-.26-.58-.61Z"/>
        </g>
        <g id="Group_3" data-name="Group 3">
          <path id="Vector_3" data-name="Vector 3" class="cls-1" d="m45.11,19.05c.08,0,.13-.05.13-.12,0-.08-.04-.11-.13-.11h-.08v.23h.08Zm-.2-.34h.2c.17,0,.25.07.25.21,0,.1-.06.16-.12.19l.18.32h-.14l-.16-.29h-.1v.29h-.12v-.73Zm.71.36c0-.29-.2-.52-.49-.52s-.49.22-.49.52c0,.29.21.52.49.52.27,0,.49-.22.49-.52Zm-1.07,0c0-.35.24-.61.58-.61s.58.26.58.61-.24.61-.58.61-.58-.26-.58-.61h0Zm-9.97,1.39c0,.09.1.09.11,0,.13-.66.32-1.1.63-1.52h-.69s-.01,0-.02,0c0,0-.01,0-.02.01s0,.01-.01.02c0,0,0,.01,0,.02v1.46Zm5.06-9.13c-.03-.1-.11-.1-.11,0,0,.95-.25,1.77-1.9,3.5l-1.31,1.37c-.59.62-1.13,1.2-1.44,1.77h1.29l.15-.16,1.87-1.97c1.56-1.64,1.78-3.38,1.44-4.51Zm-1.75,5.8l-1.57,1.65c-.95,1-1.74,1.85-1.74,2.79v.26c0,.07.08.08.11,0,.29-.84,1.27-1.74,3.06-1.42,0,0,7.81,1.42,7.87,1.43.08,0,.11-.07.06-.13-.03-.04-3.63-3.83-3.63-3.83l-4.17-.75Zm-5.65,1.81s-.03,0-.04-.02c-.01-.01-.02-.03-.02-.04v-.85s.03-.06.06-.06h1.37s.03,0,.04-.02c.01-.01.02-.03.02-.04,0-.76-.55-1.28-2.74-.88l-4.73.86s-3.61,3.79-3.63,3.83c-.05.06-.01.14.06.13.07,0,7.87-1.43,7.87-1.43,1.79-.32,2.77.58,3.06,1.42.03.07.11.06.11,0v-2.83s-.03-.06-.06-.06h-1.37Zm-2.18-11.88c-1.56,1.64-1.78,3.38-1.44,4.51.03.1.11.1.11,0,0-.95.25-1.77,1.9-3.5l3.56-3.74c.95-1,1.74-1.85,1.74-2.79V.07c0-.09-.1-.09-.11,0-.23,1.19-.69,1.67-1.63,2.65l-4.13,4.34Zm5.87-2.96v-1.47c0-.09-.1-.09-.11,0-.23,1.19-.69,1.67-1.62,2.66l-3.74,3.93c-1.81,1.91-2.13,3.75-1.21,4.94.06.08.13.03.09-.06-.61-1.45.85-2.99,1.55-3.72l3.3-3.47c.95-1,1.74-1.85,1.74-2.79Zm-5.38,7.58c-1.81,1.91-.98,3.75.08,4.26.09.04.13-.03.06-.1-.85-.77-.59-2.07.48-3.2l3.02-3.17c.95-1,1.74-1.85,1.74-2.79v-1.46c0-.09-.1-.09-.11,0-.23,1.19-.69,1.66-1.62,2.65l-3.63,3.82Zm4.02,4.74v1.47c0,.09.1.09.11,0,.23-1.19.69-1.67,1.62-2.66l1.48-1.56c1.81-1.91,2.13-3.75,1.21-4.94-.06-.08-.13-.03-.09.06.61,1.45-.85,2.99-1.55,3.72l-1.05,1.1c-.95,1-1.74,1.85-1.74,2.79Zm1.74-3.76c-.94.99-1.39,1.45-1.62,2.65-.02.09-.11.09-.11,0v-1.46c0-.94.8-1.8,1.74-2.79l.76-.8c1.07-1.12,1.32-2.42.48-3.2-.07-.06-.03-.14.06-.1,1.06.51,1.89,2.35.08,4.26l-1.38,1.45Z"/>
        </g>
      </g>
    </g>
  </g>
</svg>