<svg width="82" height="56" viewBox="0 0 82 56" fill="none" xmlns="http://www.w3.org/2000/svg">
<g id="adventist-es-centered--black 1">
<g id="Group">
<path id="Vector" fill-rule="evenodd" clip-rule="evenodd" d="M11.5208 47.1403V46.9784C11.5208 45.6342 11.1774 44.8862 10.0422 44.8862C9.1361 44.8862 8.68775 45.705 8.68775 46.9885C8.68775 48.2823 9.1361 49.0304 10.0516 49.0304C11.1297 49.0304 11.5208 48.4037 11.5208 47.1403ZM7.81967 46.9685C7.81967 45.1086 8.65911 44.1484 9.9278 44.1484C10.7195 44.1484 11.1965 44.5021 11.5112 44.9467H11.5685C11.5494 44.7749 11.5112 44.3506 11.5112 44.1484V42.3288L12.3506 41.9852V49.6671H11.6735L11.5494 48.9395H11.5112C11.2059 49.4043 10.7195 49.7683 9.91826 49.7683C8.64956 49.7683 7.81967 48.8282 7.81967 46.9685ZM14.1911 46.4226H16.7952C16.7856 45.5027 16.4041 44.8759 15.5551 44.8759C14.7539 44.8759 14.2769 45.4521 14.1911 46.4226ZM17.6728 46.5944V47.13H14.1719C14.2005 48.3531 14.7822 49.0101 15.803 49.0101C16.2991 49.0101 16.8047 48.9092 17.2053 48.7473L17.4437 49.4144C16.9191 49.657 16.4612 49.7685 15.7648 49.7685C14.3053 49.7685 13.3038 48.808 13.3038 46.9986C13.3038 45.2197 14.21 44.1482 15.5643 44.1482C16.8714 44.1482 17.6728 45.1185 17.6728 46.5944ZM18.5883 49.6671V42.3288L19.4277 41.9852V49.6671H18.5883ZM24.7879 49.7683C24.0246 49.7683 23.3475 49.6469 22.9182 49.4247L23.1854 48.6767C23.481 48.8181 24.101 48.98 24.8261 48.98C25.8372 48.98 26.3617 48.5352 26.3617 47.8175C26.3617 47.1099 25.9897 46.8066 24.7592 46.3317C23.5954 45.887 23.0042 45.3107 23.0042 44.1887C23.0042 43.0467 23.8912 42.3492 25.179 42.3492C25.9229 42.3492 26.5429 42.5109 27.0581 42.7535L26.7814 43.5319C26.3044 43.3196 25.7512 43.1478 25.1599 43.1478C24.3109 43.1478 23.8721 43.5722 23.8721 44.1988C23.8721 44.9266 24.2536 45.2195 25.3603 45.6545C26.5622 46.1294 27.2203 46.6045 27.2203 47.7366C27.2203 49.0202 26.276 49.7683 24.7879 49.7683ZM31.3503 42.0258C31.1118 42.3998 30.4345 43.178 29.9863 43.542H29.4329V43.4208C29.7096 43.0467 30.1198 42.3795 30.3392 41.9247H31.3503V42.0258ZM28.6985 46.4227H31.3025C31.293 45.5029 30.9115 44.8761 30.0625 44.8761C29.2612 44.8761 28.7842 45.4523 28.6985 46.4227ZM32.1802 46.5944V47.1302H28.6794C28.708 48.3531 29.2899 49.0103 30.3105 49.0103C30.8066 49.0103 31.3121 48.9091 31.7127 48.7475L31.9512 49.4146C31.4266 49.6572 30.9687 49.7683 30.2723 49.7683C28.8129 49.7683 27.8113 48.8082 27.8113 46.9988C27.8113 45.2198 28.7176 44.1482 30.072 44.1482C31.3789 44.1482 32.1802 45.1185 32.1802 46.5944ZM33.9349 46.7763V46.9481C33.9349 48.2823 34.2782 49.0304 35.3943 49.0304C36.3195 49.0304 36.7583 48.1508 36.7583 46.9381C36.7583 45.7049 36.3195 44.8963 35.3753 44.8963C34.3355 44.8963 33.954 45.5128 33.9349 46.7763ZM37.6264 46.9481C37.6264 48.7979 36.787 49.7681 35.5183 49.7681C34.7266 49.7681 34.2305 49.4043 33.9349 48.9798H33.8776C33.8967 49.2123 33.9349 49.6167 33.9349 49.8693V52.093H33.0954V44.2494H33.7821L33.8967 44.9873H33.9349C34.2402 44.5222 34.6979 44.1482 35.5278 44.1482C36.787 44.1482 37.6264 45.0782 37.6264 46.9482M40.6976 48.9092L40.9265 49.5457C40.7453 49.6671 40.3827 49.7683 39.9916 49.7683C39.1904 49.7683 38.4942 49.4043 38.4942 48.0905V43.3397L39.3336 43.006V44.2494H40.8121V44.9368H39.3336V48.0701C39.3336 48.7271 39.6674 49.0407 40.1348 49.0407C40.3256 49.0407 40.5834 48.9698 40.6976 48.9092ZM41.8705 49.6671H42.7099V44.2494H41.8705V49.6671ZM42.7863 42.7838C42.7863 43.1679 42.5572 43.3498 42.2997 43.3498C42.023 43.3498 41.8036 43.1679 41.8036 42.7838C41.8036 42.3895 42.023 42.2177 42.2997 42.2177C42.5572 42.2177 42.7863 42.3895 42.7863 42.7838ZM51.4759 46.1395V49.6671H50.646V46.1801C50.646 45.3309 50.3122 44.8963 49.6061 44.8963C48.6142 44.8963 48.2232 45.523 48.2232 46.6753V49.6671H47.3933V46.1801C47.3933 45.3309 47.0591 44.8963 46.344 44.8963C45.3138 44.8963 44.98 45.5938 44.98 46.8572V49.6671H44.1406V44.2494H44.8177L44.9416 44.9873H44.9894C45.3042 44.4212 45.8861 44.1484 46.4964 44.1484C47.2787 44.1484 47.813 44.4416 48.061 45.0582H48.1088C48.4521 44.4416 49.0817 44.1484 49.7495 44.1484C50.9036 44.1484 51.4759 44.7446 51.4759 46.1395ZM54.7566 49.0304C55.7868 49.0304 56.2542 48.2319 56.2542 46.9482C56.2542 45.6644 55.7868 44.8961 54.7472 44.8961C53.7073 44.8961 53.2589 45.6644 53.2589 46.9482C53.2589 48.2319 53.7168 49.0304 54.7566 49.0304ZM54.7375 49.7683C53.3829 49.7683 52.391 48.7475 52.391 46.9482C52.391 45.1591 53.2971 44.1482 54.7661 44.1482C56.1492 44.1482 57.1221 45.1591 57.1221 46.9482C57.1221 48.7475 56.1969 49.7683 54.7375 49.7683ZM62.6351 43.2284H61.5189V48.8889H62.4443C64.2855 48.8889 65.2105 47.9187 65.2105 46.0183C65.2105 44.0978 64.2757 43.2284 62.6351 43.2284ZM62.5587 49.6673H60.6604V42.4502H62.759C64.8098 42.4502 66.1167 43.6731 66.1167 45.9879C66.1167 48.4239 64.8003 49.6673 62.5589 49.6673M67.1273 49.6671H67.9668V44.2494H67.1273V49.6671ZM68.8919 42.0258C68.6536 42.3998 67.9761 43.1778 67.5278 43.5418H66.9746V43.4206C67.2513 43.0467 67.6616 42.3795 67.8808 41.9247H68.8919V42.0258ZM71.391 47.0492C70.1127 47.0998 69.7026 47.4839 69.7026 48.1712C69.7026 48.7776 70.0841 49.0506 70.6375 49.0506C71.4958 49.0506 72.1445 48.5553 72.1445 47.5043V47.0189L71.391 47.0492ZM72.9744 45.978V49.6671H72.3639L72.2018 48.8989H72.1636C71.7152 49.4953 71.3051 49.7683 70.4467 49.7683C69.5214 49.7683 68.8345 49.2628 68.8345 48.1611C68.8345 47.0796 69.6168 46.4831 71.286 46.4327L72.1542 46.4023V46.079C72.1542 45.1794 71.7631 44.8761 71.0954 44.8761C70.5611 44.8761 70.0746 45.0784 69.6548 45.2905L69.3974 44.6233C69.8458 44.3706 70.4753 44.1584 71.1429 44.1584C72.383 44.1584 72.9744 44.7146 72.9744 45.978Z" fill="black"/>
<g id="Group_2">
<path id="Vector_2" fill-rule="evenodd" clip-rule="evenodd" d="M3.58005 38.8284L3.86628 38.0197H4.3813V32.4099H3.58005V31.6115H6.04107L5.75484 32.4099H5.23982V38.0197H6.04107V38.8284H3.58005ZM9.7609 35.1391C9.7609 34.3506 9.40801 33.9564 8.71161 33.9564C8.01538 33.9564 7.66232 34.3607 7.66232 35.1492C7.66232 35.8971 8.01521 36.2712 8.72099 36.2712C9.41756 36.2712 9.7609 35.8872 9.7609 35.1391ZM10.3332 39.4753C10.3332 39.1821 10.257 38.9901 10.1044 38.8891C9.94212 38.788 9.6368 38.7374 9.17906 38.7374H8.30144C7.58611 38.7374 7.23305 39.0609 7.23305 39.7179C7.23305 40.2839 7.65277 40.5771 8.49221 40.5771C9.72272 40.5771 10.3332 40.2132 10.3332 39.4753ZM6.43181 39.7483C6.43181 39.051 6.80379 38.6059 7.54793 38.414C7.25215 38.2623 7.09957 37.9996 7.09957 37.656C7.09957 37.2821 7.30926 36.9685 7.7196 36.7058C7.13776 36.4529 6.83243 35.8062 6.83243 35.1796C6.83243 33.916 7.57657 33.3095 8.74008 33.3095C9.00739 33.3095 9.23617 33.3399 9.43665 33.4107H11.2011L10.9532 34.0979H10.2856C10.4858 34.3809 10.5908 34.7348 10.5908 35.1492C10.5908 36.2712 9.81818 36.8877 8.71161 36.8877C8.53994 36.8877 8.40646 36.8776 8.31099 36.8574C7.99611 37.0393 7.84354 37.2617 7.84354 37.5142C7.84354 37.7872 8.10096 37.9288 8.59705 37.9288H9.46529C10.4955 37.9288 11.1346 38.4241 11.1346 39.3946C11.1346 40.6376 10.257 41.2543 8.50175 41.2543C7.30943 41.2543 6.43181 40.8195 6.43181 39.7483ZM12.0117 38.8284V31.4901L12.851 31.1465V38.8284H12.0117ZM14.8826 35.5839H17.4866C17.4771 34.664 17.0956 34.0372 16.2466 34.0372C15.4453 34.0372 14.9683 34.6134 14.8826 35.5839ZM18.3643 35.7556V36.2913H14.8635C14.8921 37.5144 15.4738 38.1714 16.4946 38.1714C16.9907 38.1714 17.4964 38.0704 17.897 37.9086L18.1353 38.5757C17.6107 38.8183 17.1528 38.9298 16.4564 38.9298C14.997 38.9298 13.9954 37.9693 13.9954 36.1599C13.9954 34.3809 14.9017 33.3095 16.256 33.3095C17.563 33.3095 18.3643 34.2798 18.3643 35.7556ZM20.7581 38.9296C20.0426 38.9296 19.5467 38.8082 19.1556 38.586L19.4035 37.8986C19.7376 38.0502 20.2907 38.2119 20.7772 38.2119C21.6262 38.2119 21.9886 37.8986 21.9886 37.4132C21.9886 37.0091 21.7312 36.7664 20.7295 36.3623C19.7375 35.958 19.1459 35.6343 19.1459 34.7449C19.1459 33.8251 19.9187 33.3097 21.0634 33.3097C21.6833 33.3097 22.2176 33.4512 22.6944 33.6735L22.437 34.3912C21.9982 34.1889 21.5021 34.0372 21.0062 34.0372C20.3193 34.0372 19.9475 34.2901 19.9475 34.6945C19.9475 35.1492 20.2811 35.3311 21.2636 35.7255C22.2367 36.1095 22.7996 36.4634 22.7996 37.3325C22.7996 38.3839 22.0077 38.9294 20.7581 38.9294M23.8197 38.8284H24.6592V33.4107H23.8197V38.8284ZM24.7355 31.9451C24.7355 32.3292 24.5064 32.5111 24.249 32.5111C23.9723 32.5111 23.7529 32.3292 23.7529 31.9451C23.7529 31.5508 23.9723 31.379 24.249 31.379C24.5064 31.379 24.7355 31.5508 24.7355 31.9451ZM28.2742 36.2105C26.9959 36.2611 26.5857 36.6451 26.5857 37.3325C26.5857 37.9389 26.9673 38.2119 27.5206 38.2119C28.3792 38.2119 29.0277 37.7165 29.0277 36.6656V36.1802L28.2742 36.2105ZM29.8577 35.1393V38.8284H29.2472L29.0849 38.0601H29.0469C28.5986 38.6566 28.1884 38.9296 27.3299 38.9296C26.4045 38.9296 25.7177 38.4241 25.7177 37.3224C25.7177 36.2409 26.5 35.6444 28.1691 35.594L29.0374 35.5636V35.2403C29.0374 34.3407 28.6463 34.0374 27.9785 34.0374C27.4443 34.0374 26.9579 34.2397 26.538 34.4517L26.2806 33.7846C26.7289 33.5319 27.3585 33.3196 28.0261 33.3196C29.2662 33.3196 29.8577 33.8759 29.8577 35.1393ZM36.0856 33.6029C36.0285 33.441 35.8282 32.7737 35.7614 32.5214C35.6659 32.9358 35.542 33.3704 35.4656 33.6029L34.693 35.7862H36.8489L36.0856 33.6029ZM37.1063 36.5947H34.4068L33.596 38.8286H32.7279L35.3894 31.5811H36.162L38.8138 38.8286H37.9266L37.1063 36.5947ZM42.6765 36.3016V36.1397C42.6765 34.7955 42.3333 34.0475 41.1979 34.0475C40.2918 34.0475 39.8435 34.8663 39.8435 36.1498C39.8435 37.4436 40.2918 38.1916 41.2075 38.1916C42.2854 38.1916 42.6765 37.565 42.6765 36.3016ZM38.9754 36.1298C38.9754 34.2698 39.8148 33.3097 41.0837 33.3097C41.8752 33.3097 42.3522 33.6634 42.6669 34.108H42.7244C42.7051 33.9362 42.6669 33.5119 42.6669 33.3097V31.4901L43.5064 31.1465V38.8284H42.8294L42.7053 38.1008H42.6671C42.3618 38.5656 41.8754 38.9296 41.0742 38.9296C39.8055 38.9296 38.9756 37.9895 38.9756 36.1298M44.2023 33.4107H45.099L46.1866 36.6049C46.339 37.0496 46.5395 37.7064 46.5965 38.0401H46.6347C46.7015 37.7064 46.9211 37.0393 47.0639 36.6049L48.1516 33.4107H49.0483L47.1021 38.8284H46.1389L44.2023 33.4109V33.4107ZM50.2399 35.5839H52.8441C52.8346 34.664 52.4531 34.0372 51.6041 34.0372C50.8028 34.0372 50.3257 34.6134 50.2399 35.5839ZM53.7218 35.7556V36.2913H50.221C50.2496 37.5144 50.8313 38.1714 51.8521 38.1714C52.3482 38.1714 52.8539 38.0704 53.2545 37.9086L53.4928 38.5757C52.9683 38.8183 52.5104 38.9298 51.8139 38.9298C50.3545 38.9298 49.3529 37.9693 49.3529 36.1599C49.3529 34.3809 50.2592 33.3095 51.6135 33.3095C52.9205 33.3095 53.7218 34.2798 53.7218 35.7556ZM58.9391 35.3008V38.8284H58.1092V35.3615C58.1092 34.4922 57.7469 34.0576 56.9646 34.0576C55.8294 34.0576 55.4669 34.7551 55.4669 36.0185V38.8284H54.6277V33.4107H55.305L55.4288 34.1486H55.4765C55.8105 33.5825 56.4399 33.3097 57.0887 33.3097C58.3095 33.3097 58.9391 33.9058 58.9391 35.3008ZM62.3536 38.0704L62.5825 38.707C62.4012 38.8284 62.0387 38.9296 61.6476 38.9296C60.8464 38.9296 60.15 38.5656 60.15 37.2517V32.501L60.9896 32.1673V33.4107H62.4681V34.098H60.9896V37.2313C60.9896 37.8883 61.3234 38.2019 61.7907 38.2019C61.9814 38.2019 62.239 38.1311 62.3536 38.0704ZM63.5265 38.8284H64.3659V33.4107H63.5265V38.8284ZM64.4423 31.9451C64.4423 32.3292 64.2132 32.5111 63.9556 32.5111C63.6791 32.5111 63.4596 32.3292 63.4596 31.9451C63.4596 31.5508 63.6791 31.379 63.9556 31.379C64.2132 31.379 64.4423 31.5508 64.4423 31.9451ZM67.0842 38.9296C66.3689 38.9296 65.8728 38.8082 65.4817 38.586L65.7297 37.8986C66.0635 38.0502 66.6169 38.2119 67.1033 38.2119C67.9523 38.2119 68.3147 37.8986 68.3147 37.4132C68.3147 37.0091 68.0571 36.7664 67.0555 36.3623C66.0634 35.958 65.4721 35.6343 65.4721 34.7449C65.4721 33.8251 66.2448 33.3097 67.3895 33.3097C68.0095 33.3097 68.5437 33.4512 69.0205 33.6735L68.7631 34.3912C68.3242 34.1889 67.8282 34.0372 67.3322 34.0372C66.6452 34.0372 66.2734 34.2901 66.2734 34.6945C66.2734 35.1492 66.6072 35.3311 67.5898 35.7255C68.5627 36.1095 69.1257 36.4634 69.1257 37.3325C69.1257 38.3839 68.3338 38.9294 67.0842 38.9294M72.3588 38.0704L72.5877 38.707C72.4063 38.8284 72.0439 38.9296 71.6528 38.9296C70.8516 38.9296 70.1552 38.5656 70.1552 37.2517V32.501L70.9948 32.1673V33.4107H72.4733V34.098H70.9948V37.2313C70.9948 37.8883 71.3286 38.2019 71.796 38.2019C71.9866 38.2019 72.2444 38.1311 72.3588 38.0704ZM75.5256 36.2105C74.2473 36.2611 73.8372 36.6451 73.8372 37.3325C73.8372 37.9389 74.2187 38.2119 74.7719 38.2119C75.6304 38.2119 76.2789 37.7165 76.2789 36.6656V36.1802L75.5254 36.2105H75.5256ZM77.109 35.1393V38.8284H76.4983L76.3364 38.0601H76.298C75.8497 38.6566 75.4395 38.9296 74.581 38.9296C73.6556 38.9296 72.9691 38.4241 72.9691 37.3224C72.9691 36.2409 73.7511 35.6444 75.4206 35.594L76.2885 35.5636V35.2403C76.2885 34.3407 75.8976 34.0374 75.2298 34.0374C74.6957 34.0374 74.2092 34.2397 73.7893 34.4517L73.5318 33.7846C73.9802 33.5319 74.6096 33.3196 75.2775 33.3196C76.5173 33.3196 77.109 33.8759 77.109 35.1393ZM77.9193 31.8945C78.0052 31.8945 78.0625 31.844 78.0625 31.763C78.0625 31.6823 78.0147 31.642 77.9193 31.642H77.8335V31.8945H77.9193ZM77.6999 31.5206H77.9191C78.11 31.5206 78.1958 31.6015 78.1958 31.763C78.1958 31.8745 78.129 31.9352 78.0623 31.9653L78.2626 32.3192H78.11L77.9384 32.0058H77.8335V32.3192H77.6999V31.5206ZM78.4723 31.9249C78.4723 31.6116 78.2531 31.3486 77.9384 31.3486C77.6237 31.3486 77.4041 31.5912 77.4041 31.9249C77.4041 32.2381 77.6237 32.491 77.9384 32.491C78.234 32.491 78.4723 32.2585 78.4723 31.9249ZM77.3086 31.9249C77.3086 31.5307 77.5664 31.2475 77.9384 31.2475C78.2913 31.2475 78.5678 31.5307 78.5678 31.9249C78.5678 32.3091 78.3006 32.592 77.9384 32.592C77.5662 32.592 77.3086 32.3091 77.3086 31.9249Z" fill="black"/>
</g>
<g id="Group_3">
<path id="Vector_3" fill-rule="evenodd" clip-rule="evenodd" d="M52.7141 24.877C52.8036 24.877 52.8571 24.8241 52.8571 24.7473C52.8571 24.6617 52.8123 24.625 52.7122 24.625H52.628V24.877H52.7141ZM52.4972 24.5083H52.7177C52.9052 24.5083 52.9896 24.5869 52.9896 24.7439C52.9896 24.8586 52.9241 24.9226 52.8552 24.9516L53.055 25.3057H52.9071L52.7347 24.9901H52.628V25.3059H52.4972V24.5083ZM53.2669 24.9061C53.2669 24.5905 53.0446 24.3331 52.733 24.3331C52.4214 24.3331 52.1975 24.5723 52.1975 24.9061C52.1975 25.2219 52.4214 25.4791 52.7328 25.4791C53.0276 25.4791 53.2669 25.2401 53.2669 24.9061ZM52.1009 24.9061C52.1009 24.5175 52.3663 24.2365 52.733 24.2365C53.0825 24.2365 53.365 24.5175 53.365 24.9061C53.365 25.2949 53.0999 25.5758 52.733 25.5758C52.3663 25.5758 52.101 25.2949 52.101 24.9061H52.1009ZM41.2378 26.428C41.2378 26.5256 41.3435 26.5261 41.3626 26.428C41.5031 25.706 41.7165 25.2246 42.0501 24.7571L41.2999 24.7578C41.2917 24.7578 41.2837 24.7595 41.2761 24.7627C41.2686 24.766 41.2618 24.7709 41.256 24.7769C41.2502 24.783 41.2457 24.7903 41.2425 24.7982C41.2394 24.8062 41.2378 24.8147 41.2378 24.8234V26.428ZM46.7477 16.4049C46.7168 16.2995 46.6306 16.2924 46.6314 16.403C46.6399 17.4469 46.3566 18.344 44.5584 20.2496L43.1359 21.7557C42.4886 22.4416 41.9066 23.0677 41.5626 23.6938H42.9673L43.1334 23.5177L45.174 21.353C46.8735 19.552 47.1105 17.6474 46.7477 16.4049ZM44.8405 22.7727L43.1359 24.5802C42.1042 25.6737 41.2378 26.6157 41.2378 27.6458L41.2388 27.9328C41.2388 28.0105 41.3302 28.023 41.3583 27.9415C41.677 27.0191 42.7413 26.0346 44.6936 26.3836C44.6936 26.3836 53.1989 27.9408 53.2703 27.9476C53.3534 27.9554 53.3945 27.8687 53.3409 27.8013C53.3087 27.7607 49.3824 23.6004 49.3824 23.6004L44.8405 22.7727ZM38.6875 24.7573C38.671 24.7573 38.6552 24.7503 38.6436 24.738C38.632 24.7257 38.6254 24.7089 38.6254 24.6915V23.759C38.6254 23.7225 38.6532 23.6933 38.6875 23.6933L40.1761 23.6936C40.1925 23.6936 40.2083 23.6867 40.22 23.6744C40.2316 23.662 40.2381 23.6453 40.2381 23.6279C40.2342 22.7902 39.6384 22.2212 37.2508 22.6614L32.0956 23.6004C32.0956 23.6004 28.1691 27.7607 28.1369 27.8013C28.0834 27.8687 28.1245 27.9554 28.2075 27.9476C28.2791 27.941 36.7842 26.3836 36.7842 26.3836C38.7367 26.0346 39.801 27.0191 40.1195 27.9415C40.1476 28.0228 40.2392 28.0107 40.2392 27.9328L40.2393 24.8228C40.2393 24.7867 40.2115 24.7573 40.1773 24.7573H38.6875ZM36.3112 11.7233C34.6117 13.524 34.3747 15.4291 34.7377 16.6716C34.7683 16.7771 34.8546 16.7841 34.8538 16.6734C34.8452 15.6296 35.1287 14.7325 36.9269 12.8269L40.8036 8.7203C41.8353 7.62686 42.7017 6.68479 42.7017 5.65457V4.04755C42.7017 3.94982 42.596 3.94946 42.5769 4.04755C42.3219 5.35904 41.827 5.87641 40.8062 6.95811L36.3112 11.7233ZM42.7055 8.47661V6.85875C42.7055 6.76102 42.5998 6.76066 42.5807 6.85875C42.3256 8.17024 41.8319 8.69573 40.8111 9.77744L36.7396 14.088C34.7637 16.1817 34.4218 18.2081 35.4267 19.5102C35.4937 19.5973 35.5658 19.5451 35.5222 19.4403C34.8577 17.8474 36.451 16.1584 37.2096 15.3547L40.8074 11.5423C41.8391 10.4489 42.7055 9.50683 42.7055 8.47661ZM36.8512 16.7944C34.8752 18.8881 35.7839 20.9104 36.9365 21.4672C37.0376 21.5159 37.0778 21.4291 37.0004 21.3582C36.0763 20.5096 36.3569 19.0825 37.5192 17.851L40.8033 14.3709C41.835 13.2776 42.7012 12.3356 42.7012 11.3053V9.6985C42.7012 9.60077 42.5955 9.60041 42.5766 9.6985C42.3216 11.0096 41.8275 11.5248 40.8069 12.6065L36.8512 16.7944ZM41.2342 21.9988V23.6168C41.2342 23.7144 41.3399 23.7149 41.3589 23.6168C41.6141 22.3057 42.1078 21.78 43.1284 20.6983L44.7457 18.9882C46.7216 16.8945 47.0634 14.8684 46.0584 13.5661C45.9914 13.4792 45.9193 13.5312 45.9631 13.636C46.6275 15.2289 45.0344 16.9178 44.2757 17.7219L43.1323 18.9336C42.1004 20.0265 41.2342 20.9686 41.2342 21.9988ZM43.1329 17.8691C42.112 18.9506 41.618 19.466 41.3631 20.7773C41.344 20.8756 41.2383 20.8752 41.2383 20.7773V19.1704C41.2383 18.1402 42.1045 17.1982 43.1364 16.1049L43.9662 15.2255C45.1285 13.9939 45.4091 12.567 44.4847 11.7183C44.4075 11.6475 44.4478 11.5604 44.5488 11.6094C45.7014 12.1657 46.6101 14.1881 44.6339 16.2821L43.1329 17.8691Z" fill="black"/>
</g>
</g>
</g>
</svg>
