<svg width="136" height="38" viewBox="0 0 136 38" fill="none" xmlns="http://www.w3.org/2000/svg">
<g id="adventist-es--black 1">
<g id="Group">
<path id="Vector" fill-rule="evenodd" clip-rule="evenodd" d="M45.5388 28.4473V28.2612C45.5388 26.7161 45.1198 25.8562 43.7352 25.8562C42.63 25.8562 42.0831 26.7975 42.0831 28.2728C42.0831 29.76 42.63 30.6199 43.7469 30.6199C45.0617 30.6199 45.5388 29.8996 45.5388 28.4473ZM41.0242 28.2498C41.0242 26.1118 42.0481 25.0082 43.5955 25.0082C44.5614 25.0082 45.1433 25.4147 45.5269 25.9258H45.5968C45.5739 25.7283 45.5269 25.2405 45.5269 25.0082V22.9165L46.5511 22.5216V31.3519H45.7251L45.5737 30.5155H45.5269C45.1547 31.0497 44.5614 31.4682 43.584 31.4682C42.0363 31.4682 41.0242 30.3876 41.0242 28.2498ZM48.7963 27.6223H51.9728C51.9611 26.5649 51.4958 25.8444 50.4602 25.8444C49.4828 25.8444 48.9009 26.5068 48.7963 27.6223ZM53.0433 27.8197V28.4354H48.7728C48.8078 29.8414 49.5173 30.5967 50.7625 30.5967C51.3674 30.5967 51.9842 30.4806 52.4731 30.2945L52.7638 31.0614C52.124 31.3403 51.5652 31.4684 50.7159 31.4684C48.9357 31.4684 47.714 30.3643 47.714 28.2845C47.714 26.2395 48.8192 25.008 50.4714 25.008C52.0657 25.008 53.0431 26.1232 53.0431 27.8197M54.1598 31.3519V22.9165L55.1838 22.5216V31.3519H54.1598ZM61.7224 31.4682C60.7914 31.4682 59.9652 31.3286 59.4418 31.0732L59.7676 30.2133C60.1282 30.3759 60.8847 30.562 61.769 30.562C63.0021 30.562 63.6422 30.0507 63.6422 29.2257C63.6422 28.4124 63.1884 28.0637 61.6874 27.5178C60.268 27.0066 59.5466 26.3442 59.5466 25.0545C59.5466 23.7417 60.6285 22.94 62.1994 22.94C63.1069 22.94 63.8634 23.1258 64.4917 23.4047L64.1542 24.2995C63.5723 24.0555 62.8975 23.858 62.1763 23.858C61.1405 23.858 60.6055 24.3458 60.6055 25.0661C60.6055 25.9027 61.0707 26.2393 62.4205 26.7393C63.8865 27.2853 64.6896 27.8314 64.6896 29.1327C64.6896 30.6083 63.5376 31.4682 61.7222 31.4682M69.7272 22.5681C69.4361 22.9979 68.6101 23.8925 68.0632 24.3109H67.3884V24.1717C67.7259 23.7415 68.226 22.9746 68.4937 22.4518H69.7272V22.5681ZM66.4924 27.6223H69.669C69.6574 26.5649 69.192 25.8444 68.1564 25.8444C67.179 25.8444 66.5972 26.5068 66.4924 27.6223ZM70.7395 27.8197V28.4354H66.4693C66.5042 29.8412 67.2137 30.5967 68.4587 30.5967C69.0639 30.5967 69.6807 30.4804 70.1693 30.2945L70.4601 31.0614C69.8202 31.3403 69.2618 31.468 68.4124 31.468C66.6321 31.468 65.4104 30.3643 65.4104 28.2847C65.4104 26.2395 66.5159 25.008 68.1678 25.008C69.7622 25.008 70.7395 26.1232 70.7395 27.8197ZM72.88 28.0289V28.2263C72.88 29.76 73.2988 30.6199 74.6603 30.6199C75.7888 30.6199 76.3241 29.6089 76.3241 28.2149C76.3241 26.7973 75.7888 25.8678 74.6368 25.8678C73.3687 25.8678 72.9031 26.5765 72.88 28.0289ZM77.383 28.2263C77.383 30.3527 76.3588 31.468 74.8114 31.468C73.8457 31.468 73.2406 31.0498 72.88 30.5618H72.8101C72.8332 30.829 72.88 31.2939 72.88 31.5842V34.1404H71.856V25.1242H72.6937L72.8332 25.9725H72.88C73.2522 25.4378 73.8108 25.008 74.8231 25.008C76.3588 25.008 77.383 26.0767 77.383 28.2263ZM81.129 30.4806L81.4085 31.2123C81.1872 31.3519 80.7451 31.4682 80.2679 31.4682C79.2907 31.4682 78.4412 31.0497 78.4412 29.5395V24.0785L79.4652 23.695V25.1242H81.2687V25.9143H79.4652V29.516C79.4652 30.2713 79.8723 30.6318 80.4425 30.6318C80.6752 30.6318 80.9895 30.5504 81.129 30.4806ZM82.5599 31.3519H83.5839V25.1242H82.5599V31.3519ZM83.6768 23.4396C83.6768 23.881 83.3975 24.0901 83.0833 24.0901C82.7458 24.0901 82.4782 23.881 82.4782 23.4396C82.4782 22.9863 82.7458 22.7888 83.0833 22.7888C83.3975 22.7888 83.6768 22.9863 83.6768 23.4396ZM94.2767 27.2969V31.3519H93.2644V27.3436C93.2644 26.3674 92.8572 25.8678 91.9959 25.8678C90.786 25.8678 90.309 26.5882 90.309 27.9128V31.3519H89.2967V27.3436C89.2967 26.3674 88.8891 25.8678 88.0165 25.8678C86.7601 25.8678 86.3529 26.6696 86.3529 28.1219V31.3519H85.329V25.1242H86.155L86.3061 25.9725H86.3644C86.7485 25.3217 87.4582 25.0082 88.2027 25.0082C89.1569 25.0082 89.8087 25.3452 90.1112 26.0539H90.1693C90.5883 25.3452 91.356 25.0082 92.1706 25.0082C93.5784 25.0082 94.2767 25.6934 94.2767 27.2969ZM98.2785 30.6199C99.5352 30.6199 100.105 29.7021 100.105 28.2265C100.105 26.7508 99.5352 25.8676 98.2669 25.8676C96.9988 25.8676 96.4519 26.7508 96.4519 28.2265C96.4519 29.7021 97.0102 30.6199 98.2785 30.6199ZM98.2554 31.4682C96.6028 31.4682 95.393 30.2947 95.393 28.2265C95.393 26.17 96.4982 25.008 98.2904 25.008C99.9775 25.008 101.164 26.17 101.164 28.2265C101.164 30.2947 100.035 31.468 98.2554 31.468M107.889 23.9508H106.527V30.4573H107.656C109.902 30.4573 111.03 29.342 111.03 27.1576C111.03 24.95 109.89 23.9508 107.889 23.9508ZM107.796 31.3521H105.48V23.056H108.04C110.542 23.056 112.136 24.4618 112.136 27.1227C112.136 29.9228 110.53 31.3521 107.796 31.3521ZM113.368 31.3519H114.392V25.1242H113.368V31.3519ZM115.521 22.5683C115.23 22.9981 114.404 23.8925 113.857 24.3109H113.182V24.1715C113.52 23.7417 114.02 22.9749 114.288 22.452H115.521V22.5683ZM118.569 28.3426C117.01 28.4008 116.51 28.8422 116.51 29.6323C116.51 30.3294 116.975 30.6432 117.65 30.6432C118.697 30.6432 119.488 30.0738 119.488 28.8657V28.3077L118.569 28.3426ZM120.501 27.1112V31.3519H119.756L119.558 30.4687H119.512C118.965 31.1544 118.465 31.4682 117.417 31.4682C116.289 31.4682 115.451 30.8872 115.451 29.6207C115.451 28.3775 116.405 27.6918 118.441 27.6339L119.5 27.599V27.2273C119.5 26.1932 119.023 25.8446 118.209 25.8446C117.557 25.8446 116.964 26.0771 116.451 26.3209L116.137 25.5541C116.684 25.2636 117.452 25.0196 118.267 25.0196C119.779 25.0196 120.501 25.6589 120.501 27.1112Z" fill="black"/>
<g id="Group_2">
<path id="Vector_2" fill-rule="evenodd" clip-rule="evenodd" d="M41.0824 18.8928L41.4316 17.9632H42.0596V11.5148H41.0822V10.597H44.0846L43.7352 11.5148H43.107V17.9632H44.0844V18.8928H41.0824ZM48.6219 14.652C48.6219 13.7456 48.1914 13.2925 47.3421 13.2925C46.4927 13.2925 46.062 13.7572 46.062 14.6636C46.062 15.5233 46.4925 15.9533 47.3534 15.9533C48.2031 15.9533 48.6219 15.5119 48.6219 14.652ZM49.32 19.6364C49.32 19.2994 49.227 19.0787 49.0409 18.9626C48.8429 18.8463 48.4705 18.7882 47.9121 18.7882H46.8416C45.969 18.7882 45.5386 19.1601 45.5386 19.9153C45.5386 20.5659 46.0506 20.9029 47.0745 20.9029C48.5753 20.9029 49.32 20.4847 49.32 19.6364ZM44.5612 19.9502C44.5612 19.1487 45.0146 18.637 45.9225 18.4165C45.5617 18.2421 45.3756 17.9401 45.3756 17.5452C45.3756 17.1153 45.6313 16.7549 46.1319 16.4529C45.4221 16.1622 45.0497 15.4188 45.0497 14.6985C45.0497 13.246 45.9574 12.5489 47.3771 12.5489C47.7027 12.5489 47.982 12.5838 48.2264 12.6652H50.3786L50.0763 13.4551H49.262C49.5063 13.7805 49.6342 14.1873 49.6342 14.6636C49.6342 15.9533 48.6918 16.662 47.3421 16.662C47.1325 16.662 46.9697 16.6504 46.8533 16.6272C46.4692 16.8363 46.2833 17.0919 46.2833 17.3822C46.2833 17.6959 46.5973 17.8587 47.2024 17.8587H48.2613C49.5179 17.8587 50.2975 18.4281 50.2975 19.5436C50.2975 20.9724 49.227 21.6814 47.086 21.6814C45.6315 21.6814 44.5612 21.1815 44.5612 19.9502ZM51.3675 18.8928V10.4575L52.3914 10.0625V18.8928H51.3675ZM54.8694 15.1632H58.0458C58.0344 14.1059 57.5688 13.3853 56.5334 13.3853C55.556 13.3853 54.9742 14.0477 54.8694 15.1632ZM59.1165 15.3607V15.9764H54.8463C54.8812 17.3824 55.5907 18.1376 56.8357 18.1376C57.4409 18.1376 58.0577 18.0215 58.5463 17.8355L58.8371 18.6023C58.1972 18.8812 57.6386 19.0093 56.7892 19.0093C55.0091 19.0093 53.7874 17.9052 53.7874 15.8254C53.7874 13.7805 54.8926 12.5489 56.5448 12.5489C58.1392 12.5489 59.1165 13.6642 59.1165 15.3607ZM62.0364 19.0091C61.1636 19.0091 60.5587 18.8696 60.0816 18.6142L60.384 17.8241C60.7916 17.9983 61.4664 18.1841 62.0597 18.1841C63.0953 18.1841 63.5376 17.8241 63.5376 17.2661C63.5376 16.8016 63.2234 16.5225 62.0017 16.058C60.7914 15.5933 60.0698 15.2212 60.0698 14.1989C60.0698 13.1415 61.0124 12.5491 62.4088 12.5491C63.1651 12.5491 63.8167 12.7117 64.3985 12.9673L64.0845 13.7923C63.549 13.5597 62.9441 13.3853 62.339 13.3853C61.5013 13.3853 61.0474 13.676 61.0474 14.141C61.0474 14.6636 61.4547 14.8727 62.6532 15.326C63.8402 15.7675 64.5266 16.1743 64.5266 17.1733C64.5266 18.3818 63.5607 19.0089 62.0366 19.0089M65.771 18.8928H66.7949V12.6652H65.771V18.8928ZM66.8881 10.9805C66.8881 11.422 66.6088 11.6311 66.2946 11.6311C65.9571 11.6311 65.6895 11.422 65.6895 10.9805C65.6895 10.5272 65.9571 10.3297 66.2946 10.3297C66.6088 10.3297 66.8881 10.5272 66.8881 10.9805ZM71.2045 15.8836C69.6453 15.9417 69.145 16.3832 69.145 17.1733C69.145 17.8704 69.6104 18.1841 70.2852 18.1841C71.3324 18.1841 72.1237 17.6147 72.1237 16.4066V15.8487L71.2045 15.8836ZM73.136 14.6522V18.8928H72.3915L72.1935 18.0097H72.147C71.6001 18.6954 71.0997 19.0091 70.0525 19.0091C68.9237 19.0091 68.0861 18.4281 68.0861 17.1616C68.0861 15.9184 69.0402 15.2328 71.0764 15.1748L72.1353 15.14V14.7683C72.1353 13.7342 71.6583 13.3855 70.8439 13.3855C70.1922 13.3855 69.5987 13.6181 69.0868 13.8619L68.7728 13.095C69.3197 12.8045 70.0874 12.5605 70.9022 12.5605C72.4144 12.5605 73.136 13.1999 73.136 14.6522ZM80.7333 12.8861C80.6634 12.7001 80.4191 11.933 80.3377 11.6429C80.2213 12.1193 80.0701 12.6189 79.9767 12.8861L79.0343 15.3958H81.6643L80.7333 12.8861ZM81.9783 16.3252H78.6854L77.6964 18.893H76.6375L79.8836 10.5621H80.8262L84.0611 18.893H82.9789L81.9783 16.3252ZM88.7729 15.9882V15.8022C88.7729 14.257 88.3538 13.3972 86.9693 13.3972C85.864 13.3972 85.3171 14.3384 85.3171 15.8138C85.3171 17.301 85.864 18.1609 86.9807 18.1609C88.2958 18.1609 88.7729 17.4405 88.7729 15.9882ZM84.2583 15.7907C84.2583 13.6528 85.2822 12.5491 86.8296 12.5491C87.7955 12.5491 88.3773 12.9557 88.761 13.4667H88.8309C88.8078 13.2692 88.761 12.7815 88.761 12.5491V10.4575L89.7852 10.0625V18.8928H88.9592L88.8078 18.0564H88.761C88.3888 18.5907 87.7955 19.0091 86.8181 19.0091C85.2704 19.0091 84.2583 17.9285 84.2583 15.7907ZM90.6338 12.6652H91.7276L93.0542 16.3369C93.2403 16.8481 93.4846 17.6031 93.5545 17.9866H93.6011C93.6824 17.6031 93.95 16.8363 94.1245 16.3369L95.451 12.6652H96.5448L94.1713 18.8928H92.9959L90.6338 12.6652ZM97.9988 15.1632H101.175C101.164 14.1059 100.698 13.3853 99.6626 13.3853C98.6853 13.3853 98.1034 14.0477 97.9988 15.1632ZM102.246 15.3607V15.9764H97.9755C98.0105 17.3824 98.7202 18.1376 99.9652 18.1376C100.57 18.1376 101.187 18.0215 101.676 17.8355L101.967 18.6023C101.327 18.8812 100.768 19.0093 99.9186 19.0093C98.1384 19.0093 96.9166 17.9052 96.9166 15.8254C96.9166 13.7805 98.0219 12.5489 99.6743 12.5489C101.268 12.5489 102.246 13.6642 102.246 15.3607ZM108.61 14.8378V18.8928H107.598V14.9076C107.598 13.9084 107.156 13.4088 106.201 13.4088C104.817 13.4088 104.375 14.2105 104.375 15.6628V18.8928H103.351V12.6652H104.177L104.328 13.5134H104.386C104.793 12.8627 105.561 12.5491 106.353 12.5491C107.842 12.5491 108.61 13.2344 108.61 14.8378ZM112.775 18.0215L113.054 18.7533C112.833 18.8928 112.391 19.0091 111.914 19.0091C110.937 19.0091 110.087 18.5907 110.087 17.0805V11.6195L111.111 11.2359V12.6652H112.915V13.4553H111.111V17.057C111.111 17.8122 111.518 18.1727 112.089 18.1727C112.321 18.1727 112.636 18.0913 112.775 18.0215ZM114.206 18.8928H115.23V12.6652H114.206V18.8928ZM115.323 10.9805C115.323 11.422 115.044 11.6311 114.729 11.6311C114.392 11.6311 114.124 11.422 114.124 10.9805C114.124 10.5272 114.392 10.3297 114.729 10.3297C115.044 10.3297 115.323 10.5272 115.323 10.9805ZM118.546 19.0091C117.673 19.0091 117.068 18.8696 116.591 18.6142L116.893 17.8241C117.301 17.9983 117.975 18.1841 118.569 18.1841C119.604 18.1841 120.047 17.8241 120.047 17.2661C120.047 16.8016 119.732 16.5225 118.511 16.058C117.3 15.5933 116.579 15.2212 116.579 14.1989C116.579 13.1415 117.521 12.5491 118.918 12.5491C119.674 12.5491 120.326 12.7117 120.908 12.9673L120.594 13.7923C120.058 13.5597 119.453 13.3853 118.848 13.3853C118.01 13.3853 117.556 13.676 117.556 14.141C117.556 14.6636 117.964 14.8727 119.162 15.326C120.349 15.7675 121.036 16.1743 121.036 17.1733C121.036 18.3818 120.07 19.0091 118.546 19.0091ZM124.979 18.0215L125.259 18.7533C125.038 18.8928 124.596 19.0091 124.118 19.0091C123.141 19.0091 122.292 18.5907 122.292 17.0805V11.6195L123.316 11.2359V12.6652H125.119V13.4553H123.316V17.057C123.316 17.8122 123.723 18.1727 124.293 18.1727C124.526 18.1727 124.84 18.0913 124.979 18.0215ZM128.842 15.8836C127.283 15.9417 126.783 16.3832 126.783 17.1733C126.783 17.8704 127.248 18.1841 127.923 18.1841C128.97 18.1841 129.761 17.6147 129.761 16.4066V15.8487L128.842 15.8836H128.842ZM130.774 14.6522V18.8928H130.029L129.831 18.0097H129.785C129.238 18.6954 128.737 19.0091 127.69 19.0091C126.562 19.0091 125.724 18.4281 125.724 17.1616C125.724 15.9184 126.678 15.2328 128.714 15.1748L129.773 15.14V14.7683C129.773 13.7342 129.296 13.3855 128.482 13.3855C127.83 13.3855 127.236 13.6181 126.725 13.8619L126.411 13.095C126.957 12.8045 127.725 12.5605 128.54 12.5605C130.052 12.5605 130.774 13.1999 130.774 14.6522ZM131.762 10.9224C131.867 10.9224 131.937 10.8642 131.937 10.771C131.937 10.6782 131.879 10.6319 131.762 10.6319H131.657V10.9224H131.762ZM131.495 10.4925H131.762C131.995 10.4925 132.099 10.5854 132.099 10.771C132.099 10.8991 132.018 10.9689 131.937 11.0036L132.181 11.4106H131.995L131.785 11.0501H131.657V11.4104H131.495V10.4925ZM132.437 10.9571C132.437 10.597 132.169 10.2949 131.785 10.2949C131.402 10.2949 131.134 10.5735 131.134 10.9573C131.134 11.3171 131.402 11.6078 131.785 11.6078C132.146 11.6078 132.437 11.3406 132.437 10.9571ZM131.018 10.9571C131.018 10.504 131.332 10.1786 131.785 10.1786C132.216 10.1786 132.553 10.504 132.553 10.9573C132.553 11.3987 132.228 11.7239 131.785 11.7239C131.332 11.7239 131.018 11.3987 131.018 10.9571Z" fill="black"/>
</g>
<g id="Group_3">
<path id="Vector_3" fill-rule="evenodd" clip-rule="evenodd" d="M19.5451 29.5482C19.5451 29.6608 19.674 29.661 19.6973 29.5482C19.8687 28.7182 20.129 28.1648 20.536 27.6274L19.6208 27.6283C19.6109 27.6283 19.601 27.6302 19.5918 27.634C19.5827 27.6378 19.5743 27.6434 19.5673 27.6504C19.5603 27.6574 19.5547 27.6658 19.5509 27.6749C19.5471 27.6841 19.5451 27.6939 19.5451 27.7039V29.5482ZM26.2661 18.0267C26.2285 17.9055 26.1232 17.8974 26.1243 18.0244C26.1347 19.2245 25.7891 20.2559 23.5956 22.4461L21.8604 24.1773C21.0709 24.9658 20.3609 25.6857 19.9413 26.4052H21.6548C21.7203 26.3394 21.7877 26.2723 21.8573 26.2028L24.3465 23.7147C26.4196 21.6444 26.7086 19.4549 26.2661 18.0267ZM23.9397 25.3464L21.8604 27.4244C20.6019 28.6811 19.5451 29.764 19.5451 30.9482L19.5464 31.2779C19.5464 31.3672 19.6578 31.3818 19.6921 31.2879C20.0808 30.2276 21.379 29.0959 23.7605 29.4971C23.7605 29.4971 34.1354 31.2871 34.2225 31.295C34.3238 31.3039 34.3739 31.2044 34.3086 31.1268C34.2693 31.08 29.4798 26.2979 29.4798 26.2979L23.9397 25.3464ZM16.4342 27.6276C16.4141 27.6276 16.3948 27.6197 16.3806 27.6055C16.3664 27.5913 16.3585 27.5721 16.3585 27.5521V26.4802C16.3585 26.4384 16.3924 26.4046 16.4342 26.4046L18.25 26.405C18.2599 26.405 18.2698 26.4031 18.2789 26.3993C18.2881 26.3955 18.2965 26.39 18.3035 26.383C18.3105 26.376 18.3161 26.3677 18.3199 26.3585C18.3237 26.3494 18.3257 26.3395 18.3257 26.3296C18.3209 25.3665 17.5941 24.7124 14.6818 25.2185L8.39332 26.2979C8.39332 26.2979 3.6038 31.08 3.56449 31.1268C3.4992 31.2044 3.54931 31.3039 3.65058 31.295C3.73792 31.2873 14.1126 29.4971 14.1126 29.4971C16.4941 29.0959 17.7925 30.2276 18.181 31.2879C18.2153 31.3818 18.3269 31.3674 18.3269 31.2779L18.3271 27.7032C18.3271 27.6832 18.3192 27.664 18.305 27.6498C18.2908 27.6356 18.2715 27.6276 18.2515 27.6276H16.4342ZM13.5355 12.6453C11.4625 14.7153 11.1734 16.905 11.6161 18.3334C11.6536 18.4547 11.7588 18.4628 11.7578 18.3355C11.7474 17.1353 12.0932 16.1043 14.2867 13.9138L19.0155 9.19328C20.274 7.93638 21.3308 6.85369 21.3308 5.66925V3.8222C21.3308 3.70986 21.2019 3.70945 21.1786 3.8222C20.8675 5.32954 20.2638 5.92445 19.0186 7.16745L13.5355 12.6453ZM21.3354 8.91317V7.05366C21.3354 6.94111 21.2064 6.9407 21.1831 7.05366C20.8721 8.56099 20.2698 9.16504 19.0246 10.4085L14.0581 15.3636C11.6478 17.7703 11.2308 20.0997 12.4567 21.5964C12.5384 21.6961 12.6264 21.6365 12.5729 21.5161C11.7625 19.685 13.7061 17.7435 14.6314 16.8194L19.02 12.4372C20.2786 11.1803 21.3354 10.0976 21.3354 8.91317ZM14.1943 18.4744C11.784 20.8811 12.8923 23.2059 14.2983 23.8459C14.4216 23.902 14.4707 23.8021 14.3763 23.7205C13.2488 22.7452 13.5913 21.1045 15.0091 19.689L19.0148 15.6886C20.2736 14.4319 21.3302 13.349 21.3302 12.1648V10.3177C21.3302 10.2054 21.2012 10.205 21.1782 10.3177C20.8669 11.825 20.2644 12.4171 19.0194 13.6607L14.1943 18.4744ZM19.5408 24.4572V26.3168C19.5408 26.4293 19.6697 26.4297 19.6928 26.3168C20.0039 24.8096 20.6063 24.2054 21.8513 22.962L23.8241 20.9963C26.2343 18.5897 26.6512 16.2605 25.4254 14.7635C25.3436 14.6638 25.2557 14.7234 25.3091 14.8439C26.1195 16.6749 24.1762 18.6165 23.2508 19.5405L21.8559 20.9334C20.5973 22.1901 19.5408 23.273 19.5408 24.4572ZM21.8567 19.7099C20.6115 20.9531 20.0088 21.5454 19.698 23.0529C19.6747 23.1657 19.5457 23.165 19.5457 23.0529V21.2056C19.5457 20.0214 20.6023 18.9385 21.8611 17.6818L22.8732 16.671C24.291 15.2552 24.6333 13.615 23.5058 12.6397C23.4116 12.5581 23.4606 12.458 23.5839 12.5142C24.9899 13.1538 26.0981 15.4787 23.6877 17.8855L21.8567 19.7099ZM33.544 27.7653C33.6531 27.7653 33.7184 27.7045 33.7184 27.6162C33.7184 27.5178 33.6637 27.4756 33.5417 27.4756H33.439V27.7653H33.544ZM33.2795 27.3417H33.5483C33.7771 27.3417 33.88 27.4318 33.88 27.6123C33.88 27.7441 33.8002 27.8179 33.7162 27.8513L33.9599 28.2583H33.7794L33.5691 27.8953H33.439V28.2583H33.2795V27.3417ZM34.2184 27.7988C34.2184 27.436 33.9472 27.1401 33.567 27.1401C33.1869 27.1401 32.9139 27.415 32.9139 27.7988C32.9139 28.1617 33.1869 28.4574 33.5668 28.4574C33.9264 28.4574 34.2184 28.1827 34.2184 27.7988ZM32.796 27.7988C32.796 27.3523 33.1197 27.029 33.567 27.029C33.9933 27.029 34.3379 27.3521 34.3379 27.7988C34.3379 28.2456 34.0146 28.5685 33.567 28.5685C33.1197 28.5685 32.796 28.2456 32.796 27.7988Z" fill="black"/>
</g>
</g>
</g>
</svg>
