<svg width="121" height="82" viewBox="0 0 121 82" fill="none" xmlns="http://www.w3.org/2000/svg">
<g id="adventist-es-centered--black 1">
<g id="Group">
<path id="Vector" fill-rule="evenodd" clip-rule="evenodd" d="M17.0001 69.0268V68.7898C17.0001 66.8215 16.4935 65.7262 14.8183 65.7262C13.4813 65.7262 12.8197 66.9252 12.8197 68.8046C12.8197 70.6991 13.4813 71.7944 14.8322 71.7944C16.423 71.7944 17.0001 70.8768 17.0001 69.0268ZM11.5388 68.7752C11.5388 66.0518 12.7774 64.6459 14.6495 64.6459C15.8178 64.6459 16.5216 65.1638 16.986 65.8148H17.0705C17.0424 65.5632 16.986 64.9419 16.986 64.6459V61.9814L18.2247 61.4783V72.7268H17.2255L17.0424 71.6614H16.986C16.5355 72.342 15.8178 72.875 14.6355 72.875C12.7633 72.875 11.5388 71.4984 11.5388 68.7752ZM20.9405 67.9759H24.7831C24.769 66.629 24.206 65.7111 22.9533 65.7111C21.7709 65.7111 21.0671 66.5549 20.9405 67.9759ZM26.0781 68.2274V69.0117H20.9121C20.9544 70.8028 21.8127 71.7648 23.319 71.7648C24.0511 71.7648 24.7972 71.6169 25.3884 71.3799L25.74 72.3568C24.966 72.712 24.2903 72.8752 23.2627 72.8752C21.1091 72.8752 19.6312 71.4688 19.6312 68.8194C19.6312 66.2145 20.9685 64.6456 22.9668 64.6456C24.8955 64.6456 26.0781 66.0663 26.0781 68.2274ZM27.429 72.7268V61.9814L28.6677 61.4783V72.7268H27.429ZM36.5772 72.875C35.451 72.875 34.4518 72.6972 33.8184 72.3719L34.2125 71.2765C34.6488 71.4836 35.5637 71.7206 36.6336 71.7206C38.1256 71.7206 38.8996 71.0694 38.8996 70.0185C38.8996 68.9824 38.3507 68.5382 36.5349 67.8428C34.8175 67.1916 33.9451 66.3478 33.9451 64.7049C33.9451 63.0326 35.254 62.0113 37.1543 62.0113C38.2521 62.0113 39.167 62.248 39.9272 62.6033L39.5189 63.7431C38.8151 63.4323 37.9988 63.1807 37.1261 63.1807C35.8733 63.1807 35.2258 63.8021 35.2258 64.7197C35.2258 65.7854 35.7888 66.2142 37.4219 66.8511C39.1954 67.5466 40.1665 68.2422 40.1665 69.9C40.1665 71.7796 38.7731 72.875 36.5772 72.875ZM46.2607 61.5378C45.9088 62.0854 44.9094 63.2249 44.248 63.7579H43.4314V63.5804C43.8397 63.0326 44.445 62.0557 44.7687 61.3897H46.2607V61.5378ZM42.3477 67.9761H46.1903C46.1762 66.6292 45.6132 65.7113 44.3604 65.7113C43.1781 65.7113 42.4743 66.5552 42.3477 67.9761ZM47.4853 68.2274V69.012H42.3195C42.3618 70.8027 43.2204 71.7651 44.7265 71.7651C45.4585 71.7651 46.2044 71.6169 46.7955 71.3802L47.1475 72.3571C46.3734 72.7123 45.6977 72.875 44.6701 72.875C42.5165 72.875 41.0386 71.4691 41.0386 68.8197C41.0386 66.2147 42.3759 64.6456 44.3745 64.6456C46.303 64.6456 47.4853 66.0663 47.4853 68.2274ZM50.0746 68.4938V68.7453C50.0746 70.6991 50.5813 71.7944 52.2282 71.7944C53.5934 71.7944 54.2409 70.5065 54.2409 68.7308C54.2409 66.9249 53.5934 65.741 52.2 65.741C50.6658 65.741 50.1028 66.6438 50.0746 68.4938ZM55.5219 68.7453C55.5219 71.454 54.2832 72.8747 52.4111 72.8747C51.2429 72.8747 50.5108 72.342 50.0746 71.7204H49.9901C50.0183 72.0608 50.0746 72.653 50.0746 73.0228V76.279H48.8359V64.7937H49.8492L50.0183 65.8743H50.0746C50.5252 65.1932 51.2006 64.6456 52.4252 64.6456C54.2832 64.6456 55.5219 66.0073 55.5219 68.7456M60.0537 71.6169L60.3916 72.5491C60.1242 72.7268 59.5891 72.875 59.012 72.875C57.8297 72.875 56.8023 72.342 56.8023 70.4181V63.4616L58.041 62.9731V64.7937H60.2228V65.8002H58.041V70.3883C58.041 71.3503 58.5335 71.8095 59.2233 71.8095C59.5048 71.8095 59.8852 71.7058 60.0537 71.6169ZM61.7844 72.7268H63.0231V64.7937H61.7844V72.7268ZM63.1358 62.6477C63.1358 63.2101 62.7977 63.4764 62.4179 63.4764C62.0096 63.4764 61.6858 63.2101 61.6858 62.6477C61.6858 62.0703 62.0096 61.8187 62.4179 61.8187C62.7977 61.8187 63.1358 62.0703 63.1358 62.6477ZM75.9583 67.5614V72.7268H74.7337V67.6209C74.7337 66.3774 74.2412 65.741 73.1992 65.741C71.7356 65.741 71.1586 66.6586 71.1586 68.3459V72.7268H69.934V67.6209C69.934 66.3774 69.4409 65.741 68.3856 65.741C66.8654 65.741 66.3729 66.7623 66.3729 68.6123V72.7268H65.1342V64.7937H66.1334L66.3163 65.8743H66.3867C66.8514 65.0453 67.7099 64.6459 68.6105 64.6459C69.7649 64.6459 70.5533 65.0752 70.9193 65.978H70.9898C71.4964 65.0752 72.4254 64.6459 73.4108 64.6459C75.1138 64.6459 75.9583 65.5188 75.9583 67.5614ZM80.7993 71.7944C82.3195 71.7944 83.0093 70.6253 83.0093 68.7456C83.0093 66.8657 82.3195 65.7407 80.7855 65.7407C79.251 65.7407 78.5894 66.8657 78.5894 68.7456C78.5894 70.6253 79.2651 71.7944 80.7993 71.7944ZM80.7711 72.875C78.7722 72.875 77.3087 71.3802 77.3087 68.7456C77.3087 66.1258 78.6457 64.6456 80.8134 64.6456C82.8543 64.6456 84.29 66.1258 84.29 68.7456C84.29 71.3802 82.9247 72.875 80.7711 72.875ZM92.4249 63.2987H90.7779V71.5873H92.1434C94.8602 71.5873 96.2252 70.1666 96.2252 67.3839C96.2252 64.5718 94.8459 63.2987 92.4249 63.2987ZM92.3122 72.7271H89.5111V62.1592H92.6078C95.634 62.1592 97.5625 63.9499 97.5625 67.3394C97.5625 70.9064 95.6199 72.7271 92.3124 72.7271M99.0537 72.7268H100.292V64.7937H99.0537V72.7268ZM101.658 61.5378C101.306 62.0854 100.306 63.2246 99.6446 63.7576H98.8283V63.5801C99.2366 63.0326 99.8421 62.0557 100.166 61.3897H101.658V61.5378ZM105.345 68.8935C103.459 68.9675 102.854 69.5299 102.854 70.5364C102.854 71.4244 103.417 71.824 104.233 71.824C105.5 71.824 106.457 71.0987 106.457 69.5598V68.849L105.345 68.8935ZM107.682 67.3249V72.7268H106.781L106.542 71.6019H106.485C105.824 72.4753 105.218 72.875 103.952 72.875C102.586 72.875 101.573 72.1349 101.573 70.5216C101.573 68.9379 102.727 68.0645 105.19 67.9907L106.471 67.9462V67.4728C106.471 66.1555 105.894 65.7113 104.909 65.7113C104.121 65.7113 103.403 66.0076 102.783 66.3181L102.403 65.3413C103.065 64.9712 103.994 64.6604 104.979 64.6604C106.809 64.6604 107.682 65.4749 107.682 67.3249Z" fill="black"/>
<g id="Group_2">
<path id="Vector_2" fill-rule="evenodd" clip-rule="evenodd" d="M5.28271 56.8559L5.70508 55.6716H6.46504V47.4574H5.28271V46.2882H8.91422L8.49186 47.4574H7.7319V55.6716H8.91422V56.8559H5.28271ZM14.4032 51.4537C14.4032 50.2991 13.8825 49.7219 12.8549 49.7219C11.8275 49.7219 11.3066 50.3139 11.3066 51.4685C11.3066 52.5636 11.8273 53.1114 12.8687 53.1114C13.8966 53.1114 14.4032 52.549 14.4032 51.4537ZM15.2477 57.8031C15.2477 57.3738 15.1353 57.0926 14.9101 56.9448C14.6707 56.7966 14.2201 56.7226 13.5447 56.7226H12.2496C11.1941 56.7226 10.6731 57.1963 10.6731 58.1584C10.6731 58.9871 11.2925 59.4164 12.5311 59.4164C14.3469 59.4164 15.2477 58.8837 15.2477 57.8031ZM9.4908 58.2028C9.4908 57.1818 10.0397 56.53 11.1378 56.2491C10.7013 56.0269 10.4762 55.6423 10.4762 55.1392C10.4762 54.5916 10.7856 54.1324 11.3911 53.7478C10.5325 53.3775 10.082 52.4305 10.082 51.5129C10.082 49.6626 11.18 48.7746 12.8969 48.7746C13.2914 48.7746 13.6289 48.8191 13.9248 48.9228H16.5284L16.1627 49.929H15.1775C15.4729 50.3435 15.6278 50.8617 15.6278 51.4685C15.6278 53.1114 14.4878 54.0142 12.8549 54.0142C12.6016 54.0142 12.4046 53.9994 12.2637 53.9697C11.7991 54.2361 11.574 54.5617 11.574 54.9315C11.574 55.3312 11.9538 55.5386 12.6859 55.5386H13.967C15.4872 55.5386 16.4303 56.2639 16.4303 57.6849C16.4303 59.505 15.1353 60.4081 12.5452 60.4081C10.7858 60.4081 9.4908 59.7714 9.4908 58.2028ZM17.7246 56.8559V46.1104L18.963 45.6073V56.8559H17.7246ZM21.9608 52.1049H25.8034C25.7893 50.758 25.2263 49.8401 23.9736 49.8401C22.7912 49.8401 22.0874 50.6839 21.9608 52.1049ZM27.0984 52.3565V53.1407H21.9327C21.9749 54.9318 22.8332 55.8938 24.3396 55.8938C25.0716 55.8938 25.8177 55.746 26.4089 55.509L26.7606 56.4858C25.9865 56.8411 25.3109 57.0043 24.2832 57.0043C22.1296 57.0043 20.6517 55.5978 20.6517 52.9484C20.6517 50.3435 21.989 48.7746 23.9874 48.7746C25.9161 48.7746 27.0984 50.1954 27.0984 52.3565ZM30.6308 57.004C29.575 57.004 28.8433 56.8263 28.2662 56.5009L28.6319 55.4944C29.125 55.7163 29.9411 55.9531 30.659 55.9531C31.9118 55.9531 32.4466 55.4944 32.4466 54.7837C32.4466 54.1919 32.0667 53.8364 30.5886 53.2447C29.1247 52.6527 28.2518 52.1787 28.2518 50.8765C28.2518 49.5296 29.3922 48.7749 31.0814 48.7749C31.996 48.7749 32.7844 48.982 33.488 49.3076L33.1082 50.3586C32.4607 50.0623 31.7286 49.8401 30.9969 49.8401C29.9833 49.8401 29.4347 50.2104 29.4347 50.8027C29.4347 51.4685 29.927 51.7348 31.3767 52.3123C32.8126 52.8746 33.6433 53.3928 33.6433 54.6654C33.6433 56.2049 32.4748 57.0037 30.6308 57.0037M35.1486 56.8559H36.3873V48.9228H35.1486V56.8559ZM36.5 46.7768C36.5 47.3391 36.1619 47.6055 35.782 47.6055C35.3737 47.6055 35.05 47.3391 35.05 46.7768C35.05 46.1993 35.3737 45.9478 35.782 45.9478C36.1619 45.9478 36.5 46.1993 36.5 46.7768ZM41.7216 53.0225C39.8354 53.0966 39.2301 53.6589 39.2301 54.6654C39.2301 55.5534 39.7931 55.9531 40.6097 55.9531C41.8765 55.9531 42.8335 55.2278 42.8335 53.6888V52.9781L41.7216 53.0225ZM44.0583 51.4539V56.8559H43.1575L42.918 55.7309H42.8619C42.2003 56.6043 41.595 57.004 40.3282 57.004C38.9627 57.004 37.9492 56.2639 37.9492 54.6506C37.9492 53.067 39.1036 52.1935 41.5666 52.1197L42.8478 52.0753V51.6018C42.8478 50.2845 42.2707 49.8404 41.2854 49.8404C40.497 49.8404 39.7793 50.1366 39.1597 50.4472L38.7798 49.4703C39.4414 49.1003 40.3705 48.7895 41.3556 48.7895C43.1854 48.7895 44.0583 49.6039 44.0583 51.4539ZM53.2483 49.2042C53.164 48.9672 52.8684 47.9901 52.7698 47.6206C52.6289 48.2274 52.446 48.8638 52.3334 49.2042L51.1933 52.4012H54.3745L53.2483 49.2042ZM54.7544 53.5851H50.7709L49.5745 56.8561H48.2936L52.2209 46.2438H53.361L57.274 56.8561H55.9649L54.7544 53.5851ZM62.9738 53.1558V52.9188C62.9738 50.9506 62.4674 49.8552 60.792 49.8552C59.455 49.8552 58.7934 51.0542 58.7934 52.9336C58.7934 54.8281 59.455 55.9235 60.8061 55.9235C62.3967 55.9235 62.9738 55.0059 62.9738 53.1558ZM57.5125 52.9043C57.5125 50.1808 58.7511 48.7749 60.6235 48.7749C61.7915 48.7749 62.4953 49.2928 62.9597 49.9438H63.0445C63.0161 49.6923 62.9597 49.0709 62.9597 48.7749V46.1104L64.1984 45.6073V56.8559H63.1995L63.0163 55.7904H62.96C62.5094 56.471 61.7917 57.004 60.6094 57.004C58.7373 57.004 57.5127 55.6275 57.5127 52.9043M65.2253 48.9228H66.5485L68.1534 53.6C68.3783 54.2512 68.6741 55.213 68.7582 55.7015H68.8145C68.9131 55.213 69.2371 54.2361 69.4479 53.6L71.0529 48.9228H72.3761L69.5043 56.8559H68.083L65.2253 48.923V48.9228ZM74.1345 52.1049H77.9773C77.9632 50.758 77.4002 49.8401 76.1475 49.8401C74.9651 49.8401 74.261 50.6839 74.1345 52.1049ZM79.2723 52.3565V53.1407H74.1066C74.1488 54.9318 75.0071 55.8938 76.5135 55.8938C77.2455 55.8938 77.9916 55.746 78.5828 55.509L78.9345 56.4858C78.1604 56.8411 77.4848 57.0043 76.4571 57.0043C74.3035 57.0043 72.8256 55.5978 72.8256 52.9484C72.8256 50.3435 74.1629 48.7746 76.1613 48.7746C78.09 48.7746 79.2723 50.1954 79.2723 52.3565ZM86.971 51.6904V56.8559H85.7465V51.7793C85.7465 50.5064 85.2119 49.87 84.0575 49.87C82.3824 49.87 81.8475 50.8913 81.8475 52.7413V56.8559H80.6091V48.9228H81.6086L81.7912 50.0033H81.8616C82.3544 49.1743 83.2832 48.7749 84.2406 48.7749C86.042 48.7749 86.971 49.6478 86.971 51.6904ZM92.0095 55.746L92.3474 56.6781C92.0797 56.8559 91.5449 57.004 90.9678 57.004C89.7855 57.004 88.7579 56.471 88.7579 54.5472V47.5907L89.9968 47.1021V48.9228H92.1786V49.9293H89.9968V54.5173C89.9968 55.4793 90.4894 55.9385 91.1789 55.9385C91.4604 55.9385 91.8405 55.8348 92.0095 55.746ZM93.7403 56.8559H94.9789V48.9228H93.7403V56.8559ZM95.0916 46.7768C95.0916 47.3391 94.7535 47.6055 94.3734 47.6055C93.9654 47.6055 93.6416 47.3391 93.6416 46.7768C93.6416 46.1993 93.9654 45.9478 94.3734 45.9478C94.7535 45.9478 95.0916 46.1993 95.0916 46.7768ZM98.9901 57.004C97.9345 57.004 97.2025 56.8263 96.6254 56.5009L96.9914 55.4944C97.484 55.7163 98.3005 55.9531 99.0182 55.9531C100.271 55.9531 100.806 55.4944 100.806 54.7837C100.806 54.1919 100.426 53.8364 98.9478 53.2447C97.4837 52.6527 96.6113 52.1787 96.6113 50.8765C96.6113 49.5296 97.7514 48.7749 99.4406 48.7749C100.356 48.7749 101.144 48.982 101.847 49.3076L101.467 50.3586C100.82 50.0623 100.088 49.8401 99.3561 49.8401C98.3423 49.8401 97.7936 50.2104 97.7936 50.8027C97.7936 51.4685 98.2862 51.7348 99.7362 52.3123C101.172 52.8746 102.002 53.3928 102.002 54.6654C102.002 56.2049 100.834 57.0037 98.9901 57.0037M106.773 55.746L107.111 56.6781C106.843 56.8559 106.309 57.004 105.732 57.004C104.549 57.004 103.522 56.471 103.522 54.5472V47.5907L104.761 47.1021V48.9228H106.942V49.9293H104.761V54.5173C104.761 55.4793 105.253 55.9385 105.943 55.9385C106.224 55.9385 106.604 55.8348 106.773 55.746ZM111.446 53.0225C109.56 53.0966 108.955 53.6589 108.955 54.6654C108.955 55.5534 109.518 55.9531 110.334 55.9531C111.601 55.9531 112.558 55.2278 112.558 53.6888V52.9781L111.446 53.0225H111.446ZM113.783 51.4539V56.8559H112.882L112.643 55.7309H112.586C111.924 56.6043 111.319 57.004 110.052 57.004C108.687 57.004 107.674 56.2639 107.674 54.6506C107.674 53.067 108.828 52.1935 111.291 52.1197L112.572 52.0753V51.6018C112.572 50.2845 111.995 49.8404 111.01 49.8404C110.222 49.8404 109.504 50.1366 108.884 50.4472L108.504 49.4703C109.166 49.1003 110.095 48.7895 111.08 48.7895C112.91 48.7895 113.783 49.6039 113.783 51.4539ZM114.978 46.7027C115.105 46.7027 115.19 46.6286 115.19 46.5101C115.19 46.3919 115.119 46.3329 114.978 46.3329H114.852V46.7027H114.978ZM114.655 46.1551H114.978C115.26 46.1551 115.386 46.2736 115.386 46.5101C115.386 46.6733 115.288 46.7622 115.189 46.8064L115.485 47.3246H115.26L115.007 46.8656H114.852V47.3246H114.655V46.1551ZM115.794 46.7471C115.794 46.2885 115.471 45.9033 115.007 45.9033C114.542 45.9033 114.218 46.2586 114.218 46.7471C114.218 47.2058 114.542 47.5761 115.007 47.5761C115.443 47.5761 115.794 47.2357 115.794 46.7471ZM114.077 46.7471C114.077 46.17 114.458 45.7552 115.007 45.7552C115.527 45.7552 115.935 46.17 115.935 46.7471C115.935 47.3098 115.541 47.724 115.007 47.724C114.457 47.724 114.077 47.3098 114.077 46.7471Z" fill="black"/>
</g>
<g id="Group_3">
<path id="Vector_3" fill-rule="evenodd" clip-rule="evenodd" d="M77.7854 36.427C77.9174 36.427 77.9964 36.3495 77.9964 36.2371C77.9964 36.1117 77.9303 36.058 77.7826 36.058H77.6583V36.427H77.7854ZM77.4654 35.8872H77.7907C78.0674 35.8872 78.1919 36.0022 78.1919 36.2321C78.1919 36.4001 78.0953 36.4937 77.9937 36.5363L78.2885 37.0547H78.0701L77.8158 36.5926H77.6583V37.055H77.4654V35.8872ZM78.6012 36.4696C78.6012 36.0075 78.2731 35.6306 77.8133 35.6306C77.3534 35.6306 77.0231 35.9808 77.0231 36.4696C77.0231 36.932 77.3534 37.3087 77.813 37.3087C78.248 37.3087 78.6012 36.9587 78.6012 36.4696ZM76.8805 36.4696C76.8805 35.9007 77.2722 35.4891 77.8133 35.4891C78.329 35.4891 78.7458 35.9007 78.7458 36.4696C78.7458 37.0389 78.3546 37.4502 77.8133 37.4502C77.2722 37.4502 76.8808 37.0389 76.8808 36.4696H76.8805ZM60.8509 38.6982C60.8509 38.841 61.0069 38.8418 61.035 38.6982C61.2423 37.6409 61.5573 36.936 62.0496 36.2514L60.9425 36.2525C60.9305 36.2524 60.9186 36.2549 60.9074 36.2597C60.8963 36.2645 60.8862 36.2716 60.8777 36.2805C60.8692 36.2894 60.8625 36.3 60.8579 36.3117C60.8533 36.3233 60.8509 36.3358 60.8509 36.3485V38.6982ZM68.9813 24.0215C68.9358 23.867 68.8085 23.8567 68.8097 24.0186C68.8223 25.5472 68.4042 26.8608 65.7508 29.6512L63.6518 31.8565C62.6966 32.8608 61.8378 33.7776 61.3301 34.6945H63.403L63.648 34.4366L66.6592 31.2669C69.167 28.6296 69.5166 25.8408 68.9813 24.0215ZM66.1671 33.3457L63.6518 35.9924C62.1293 37.5936 60.8509 38.973 60.8509 40.4813L60.8524 40.9016C60.8524 41.0153 60.9872 41.0336 61.0288 40.9143C61.4989 39.5637 63.0694 38.1221 65.9503 38.6331C65.9503 38.6331 78.5008 40.9132 78.6062 40.9233C78.7287 40.9347 78.7893 40.8077 78.7104 40.709C78.6628 40.6495 72.8691 34.5577 72.8691 34.5577L66.1671 33.3457ZM57.0876 36.2517C57.0633 36.2517 57.04 36.2415 57.0228 36.2235C57.0057 36.2054 56.996 36.1809 56.996 36.1554V34.7899C56.996 34.7365 57.037 34.6937 57.0876 34.6937L59.2842 34.6942C59.3085 34.6942 59.3318 34.684 59.3489 34.666C59.3661 34.6479 59.3758 34.6234 59.3758 34.5979C59.37 33.3713 58.4908 32.5381 54.9677 33.1827L47.3605 34.5577C47.3605 34.5577 41.5666 40.6495 41.5191 40.709C41.4401 40.8077 41.5007 40.9347 41.6232 40.9233C41.7289 40.9135 54.2792 38.6331 54.2792 38.6331C57.1603 38.1221 58.7308 39.5637 59.2007 40.9143C59.2422 41.0333 59.3773 41.0156 59.3773 40.9016L59.3775 36.3477C59.3775 36.2948 59.3365 36.2517 59.286 36.2517H57.0876ZM53.5811 17.1663C51.0733 19.803 50.7236 22.5926 51.2592 24.4119C51.3045 24.5664 51.4318 24.5767 51.4305 24.4146C51.4179 22.8862 51.8363 21.5726 54.4897 18.7822L60.2102 12.769C61.7326 11.1679 63.011 9.78841 63.011 8.27988V5.92674C63.011 5.78364 62.8551 5.78311 62.8269 5.92674C62.4506 7.84713 61.7203 8.6047 60.214 10.1886L53.5811 17.1663ZM63.0166 12.4121V10.0431C63.0166 9.90004 62.8606 9.89951 62.8324 10.0431C62.4561 11.9635 61.7276 12.733 60.2212 14.3169L54.2133 20.6288C51.2977 23.6946 50.7931 26.6619 52.276 28.5685C52.3749 28.696 52.4813 28.6196 52.4169 28.4662C51.4363 26.1337 53.7874 23.6604 54.9068 22.4836L60.2157 16.9013C61.7382 15.3001 63.0166 13.9207 63.0166 12.4121ZM54.378 24.5918C51.4622 27.6575 52.803 30.6188 54.5038 31.434C54.653 31.5055 54.7124 31.3782 54.5981 31.2745C53.2344 30.0318 53.6485 27.9422 55.3636 26.1389L60.2097 21.043C61.7321 19.4422 63.0103 18.0627 63.0103 16.5542V14.2013C63.0103 14.0582 62.8543 14.0577 62.8264 14.2013C62.4501 16.1212 61.721 16.8756 60.215 18.4595L54.378 24.5918ZM60.8456 32.2125V34.5818C60.8456 34.7246 61.0016 34.7254 61.0295 34.5818C61.4061 32.6619 62.1346 31.8922 63.6407 30.3083L66.0272 27.8041C68.9428 24.7383 69.4472 21.7715 67.9642 19.8646C67.8654 19.7374 67.759 19.8136 67.8236 19.967C68.804 22.2995 66.4531 24.7725 65.3337 25.9498L63.6465 27.7242C62.1238 29.3245 60.8456 30.704 60.8456 32.2125ZM63.6472 26.1654C62.1409 27.7491 61.4119 28.5037 61.0358 30.4238C61.0076 30.5677 60.8517 30.5672 60.8517 30.4238V28.071C60.8517 26.5624 62.1298 25.183 63.6525 23.5821L64.8769 22.2945C66.592 20.491 67.0061 18.4016 65.6421 17.1589C65.5281 17.0552 65.5875 16.9277 65.7367 16.9994C67.4375 17.8141 68.7783 20.7754 65.8622 23.8416L63.6472 26.1654Z" fill="black"/>
</g>
</g>
</g>
</svg>
