<svg width="29" height="29" viewBox="0 0 29 29" fill="none" xmlns="http://www.w3.org/2000/svg">
  <g id="right arrow">
    <path id="Vector" d="M21.6533 14.0408C21.5958 13.8925 21.5096 13.757 21.3996 13.6421L15.3579 7.60042C15.2453 7.48775 15.1115 7.39838 14.9643 7.33741C14.8171 7.27644 14.6593 7.24506 14.5 7.24506C14.1782 7.24506 13.8696 7.37288 13.6421 7.60042C13.5294 7.71308 13.4401 7.84683 13.3791 7.99403C13.3181 8.14123 13.2867 8.299 13.2867 8.45833C13.2867 8.78011 13.4145 9.08872 13.6421 9.31625L17.6296 13.2917H8.45833C8.13786 13.2917 7.83052 13.419 7.60391 13.6456C7.37731 13.8722 7.25 14.1795 7.25 14.5C7.25 14.8205 7.37731 15.1278 7.60391 15.3544C7.83052 15.581 8.13786 15.7083 8.45833 15.7083H17.6296L13.6421 19.6838C13.5288 19.7961 13.4389 19.9297 13.3776 20.077C13.3162 20.2242 13.2847 20.3822 13.2847 20.5417C13.2847 20.7012 13.3162 20.8591 13.3776 21.0064C13.4389 21.1536 13.5288 21.2873 13.6421 21.3996C13.7544 21.5128 13.8881 21.6027 14.0353 21.6641C14.1825 21.7254 14.3405 21.757 14.5 21.757C14.6595 21.757 14.8175 21.7254 14.9647 21.6641C15.1119 21.6027 15.2456 21.5128 15.3579 21.3996L21.3996 15.3579C21.5096 15.243 21.5958 15.1075 21.6533 14.9592C21.7742 14.665 21.7742 14.335 21.6533 14.0408Z" fill="white"/>
  </g>
</svg>
